<?xml version="1.0" encoding="UTF-8"?>
<svg xmlns="http://www.w3.org/2000/svg" xmlns:xlink="http://www.w3.org/1999/xlink" width="252pt" height="109pt" viewBox="0 0 252 109" version="1.1">
<g id="surface1">
<path style=" stroke:none;fill-rule:nonzero;fill:rgb(100%,100%,100%);fill-opacity:1;" d="M 0 108.988281 L 0 0.0117188 L 251.996094 0.0117188 L 251.996094 108.988281 Z M 0 108.988281 "/>
<path style=" stroke:none;fill-rule:nonzero;fill:rgb(0%,0%,0%);fill-opacity:1;" d="M 49.332031 90.9375 C 49.847656 90.882812 50.183594 90.792969 50.335938 90.660156 C 50.488281 90.53125 50.5625 90.203125 50.5625 89.675781 L 50.5625 83.449219 C 50.5625 82.953125 50.488281 82.628906 50.339844 82.476562 C 50.1875 82.324219 49.851562 82.230469 49.332031 82.191406 L 49.332031 81.933594 L 56.769531 81.933594 L 56.816406 83.941406 L 56.464844 83.941406 C 56.34375 83.320312 56.167969 82.921875 55.929688 82.738281 C 55.691406 82.554688 55.164062 82.464844 54.34375 82.464844 L 52.441406 82.464844 C 52.238281 82.464844 52.113281 82.5 52.0625 82.566406 C 52.015625 82.632812 51.992188 82.753906 51.992188 82.9375 L 51.992188 86.058594 L 54.144531 86.058594 C 54.742188 86.058594 55.121094 85.96875 55.285156 85.792969 C 55.449219 85.613281 55.582031 85.253906 55.683594 84.710938 L 56.011719 84.710938 L 56.011719 87.949219 L 55.683594 87.949219 C 55.578125 87.410156 55.445312 87.050781 55.28125 86.875 C 55.117188 86.699219 54.738281 86.613281 54.144531 86.613281 L 51.992188 86.613281 L 51.992188 90.078125 C 51.992188 90.355469 52.078125 90.519531 52.253906 90.570312 C 52.429688 90.621094 52.957031 90.644531 53.832031 90.644531 C 54.777344 90.644531 55.480469 90.539062 55.929688 90.332031 C 56.378906 90.125 56.785156 89.625 57.144531 88.824219 L 57.535156 88.824219 L 56.902344 91.191406 L 49.332031 91.191406 Z M 61.042969 84.730469 C 61.375 84.730469 61.679688 84.804688 61.957031 84.949219 C 62.140625 85.046875 62.316406 85.179688 62.484375 85.347656 L 62.484375 83.175781 C 62.484375 82.898438 62.453125 82.707031 62.390625 82.601562 C 62.328125 82.496094 62.183594 82.445312 61.953125 82.445312 C 61.898438 82.445312 61.847656 82.449219 61.808594 82.453125 C 61.765625 82.457031 61.675781 82.464844 61.535156 82.480469 L 61.535156 82.253906 L 62.09375 82.109375 C 62.300781 82.054688 62.503906 82 62.710938 81.9375 C 62.914062 81.878906 63.09375 81.824219 63.25 81.769531 C 63.324219 81.746094 63.445312 81.703125 63.613281 81.640625 L 63.652344 81.652344 L 63.640625 82.371094 C 63.636719 82.628906 63.628906 82.898438 63.625 83.171875 C 63.621094 83.449219 63.617188 83.722656 63.617188 83.992188 L 63.605469 89.570312 C 63.605469 89.867188 63.640625 90.074219 63.714844 90.191406 C 63.789062 90.3125 63.980469 90.371094 64.296875 90.371094 C 64.347656 90.371094 64.394531 90.371094 64.445312 90.367188 C 64.496094 90.363281 64.546875 90.359375 64.597656 90.351562 L 64.597656 90.574219 C 64.570312 90.585938 64.238281 90.699219 63.605469 90.917969 L 62.53125 91.320312 L 62.484375 91.261719 L 62.484375 90.417969 C 62.230469 90.695312 62.007812 90.894531 61.820312 91.011719 C 61.488281 91.21875 61.101562 91.320312 60.664062 91.320312 C 59.890625 91.320312 59.261719 91.023438 58.78125 90.421875 C 58.300781 89.824219 58.0625 89.128906 58.0625 88.339844 C 58.0625 87.351562 58.351562 86.503906 58.925781 85.792969 C 59.503906 85.085938 60.207031 84.730469 61.042969 84.730469 Z M 61.296875 90.582031 C 61.652344 90.582031 61.9375 90.476562 62.15625 90.269531 C 62.375 90.058594 62.484375 89.859375 62.484375 89.675781 L 62.484375 86.742188 C 62.484375 86.148438 62.324219 85.730469 62.007812 85.488281 C 61.691406 85.242188 61.382812 85.121094 61.082031 85.121094 C 60.507812 85.121094 60.0625 85.375 59.742188 85.882812 C 59.421875 86.390625 59.265625 87.015625 59.265625 87.761719 C 59.265625 88.496094 59.433594 89.148438 59.773438 89.722656 C 60.113281 90.296875 60.621094 90.582031 61.296875 90.582031 Z M 66.894531 84.863281 L 66.894531 89.238281 C 66.894531 89.546875 66.9375 89.792969 67.023438 89.980469 C 67.191406 90.328125 67.5 90.5 67.953125 90.5 C 68.261719 90.5 68.566406 90.398438 68.863281 90.191406 C 69.027344 90.078125 69.199219 89.921875 69.371094 89.722656 L 69.371094 85.976562 C 69.371094 85.625 69.300781 85.394531 69.167969 85.285156 C 69.03125 85.175781 68.757812 85.109375 68.351562 85.085938 L 68.351562 84.863281 L 70.554688 84.863281 L 70.554688 89.675781 C 70.554688 89.984375 70.609375 90.195312 70.722656 90.3125 C 70.832031 90.429688 71.070312 90.480469 71.429688 90.464844 L 71.429688 90.660156 C 71.179688 90.726562 70.992188 90.777344 70.875 90.8125 C 70.757812 90.847656 70.558594 90.910156 70.28125 91 C 70.160156 91.042969 69.902344 91.140625 69.5 91.292969 C 69.476562 91.292969 69.464844 91.285156 69.460938 91.261719 C 69.457031 91.242188 69.453125 91.21875 69.453125 91.191406 L 69.453125 90.089844 C 69.144531 90.460938 68.863281 90.734375 68.609375 90.910156 C 68.222656 91.183594 67.8125 91.320312 67.378906 91.320312 C 66.984375 91.320312 66.609375 91.179688 66.257812 90.898438 C 65.902344 90.621094 65.726562 90.152344 65.726562 89.496094 L 65.726562 85.949219 C 65.726562 85.582031 65.648438 85.339844 65.492188 85.214844 C 65.390625 85.136719 65.179688 85.085938 64.851562 85.050781 L 64.851562 84.863281 Z M 75.203125 84.746094 C 75.773438 84.746094 76.261719 84.890625 76.675781 85.1875 C 77.089844 85.480469 77.292969 85.800781 77.292969 86.152344 C 77.292969 86.304688 77.242188 86.445312 77.136719 86.574219 C 77.03125 86.703125 76.871094 86.769531 76.652344 86.769531 C 76.492188 86.769531 76.351562 86.714844 76.230469 86.605469 C 76.109375 86.496094 76.023438 86.335938 75.96875 86.125 L 75.886719 85.796875 C 75.828125 85.554688 75.722656 85.386719 75.578125 85.285156 C 75.425781 85.191406 75.230469 85.140625 74.984375 85.140625 C 74.464844 85.140625 74.023438 85.367188 73.667969 85.820312 C 73.308594 86.273438 73.128906 86.878906 73.128906 87.628906 C 73.128906 88.316406 73.328125 88.933594 73.722656 89.480469 C 74.117188 90.027344 74.648438 90.300781 75.316406 90.300781 C 75.792969 90.300781 76.214844 90.148438 76.582031 89.839844 C 76.792969 89.660156 77.03125 89.378906 77.292969 88.988281 L 77.484375 89.105469 C 77.226562 89.652344 76.953125 90.085938 76.664062 90.40625 C 76.113281 91.015625 75.476562 91.320312 74.75 91.320312 C 74.039062 91.320312 73.410156 91.042969 72.863281 90.480469 C 72.316406 89.917969 72.042969 89.160156 72.042969 88.199219 C 72.042969 87.253906 72.34375 86.441406 72.941406 85.761719 C 73.535156 85.082031 74.289062 84.746094 75.203125 84.746094 Z M 81.949219 87.402344 C 81.425781 87.578125 80.992188 87.769531 80.652344 87.980469 C 79.996094 88.386719 79.667969 88.84375 79.667969 89.359375 C 79.667969 89.773438 79.804688 90.078125 80.078125 90.277344 C 80.253906 90.402344 80.453125 90.464844 80.671875 90.464844 C 80.972656 90.464844 81.261719 90.382812 81.535156 90.214844 C 81.8125 90.046875 81.949219 89.832031 81.949219 89.570312 Z M 78.449219 89.832031 C 78.449219 89.171875 78.78125 88.617188 79.441406 88.175781 C 79.859375 87.902344 80.695312 87.53125 81.949219 87.0625 L 81.949219 86.480469 C 81.949219 86.015625 81.90625 85.691406 81.8125 85.511719 C 81.65625 85.207031 81.335938 85.050781 80.851562 85.050781 C 80.617188 85.050781 80.394531 85.113281 80.1875 85.230469 C 79.976562 85.355469 79.871094 85.523438 79.871094 85.738281 C 79.871094 85.792969 79.882812 85.882812 79.90625 86.011719 C 79.929688 86.144531 79.941406 86.226562 79.941406 86.261719 C 79.941406 86.519531 79.855469 86.695312 79.6875 86.796875 C 79.59375 86.855469 79.476562 86.886719 79.34375 86.886719 C 79.140625 86.886719 78.984375 86.816406 78.875 86.683594 C 78.765625 86.550781 78.710938 86.398438 78.710938 86.234375 C 78.710938 85.917969 78.90625 85.582031 79.300781 85.234375 C 79.695312 84.886719 80.273438 84.710938 81.035156 84.710938 C 81.917969 84.710938 82.515625 84.996094 82.832031 85.574219 C 83 85.886719 83.085938 86.34375 83.085938 86.945312 L 83.085938 89.6875 C 83.085938 89.953125 83.101562 90.132812 83.140625 90.234375 C 83.199219 90.410156 83.320312 90.5 83.507812 90.5 C 83.613281 90.5 83.699219 90.484375 83.769531 90.453125 C 83.835938 90.421875 83.957031 90.34375 84.125 90.222656 L 84.125 90.574219 C 83.976562 90.753906 83.820312 90.898438 83.652344 91.011719 C 83.398438 91.1875 83.136719 91.273438 82.875 91.273438 C 82.5625 91.273438 82.339844 91.171875 82.199219 90.972656 C 82.0625 90.773438 81.984375 90.53125 81.96875 90.253906 C 81.625 90.554688 81.328125 90.777344 81.082031 90.925781 C 80.667969 91.171875 80.273438 91.292969 79.898438 91.292969 C 79.507812 91.292969 79.167969 91.15625 78.882812 90.878906 C 78.59375 90.605469 78.449219 90.253906 78.449219 89.832031 Z M 87.714844 84.886719 L 87.714844 85.378906 L 86.320312 85.378906 L 86.304688 89.316406 C 86.304688 89.664062 86.335938 89.925781 86.394531 90.105469 C 86.503906 90.417969 86.71875 90.574219 87.035156 90.574219 C 87.199219 90.574219 87.34375 90.539062 87.464844 90.460938 C 87.585938 90.382812 87.722656 90.257812 87.878906 90.089844 L 88.054688 90.242188 L 87.90625 90.445312 C 87.667969 90.765625 87.417969 90.992188 87.152344 91.121094 C 86.886719 91.253906 86.632812 91.320312 86.386719 91.320312 C 85.847656 91.320312 85.484375 91.082031 85.292969 90.605469 C 85.1875 90.34375 85.136719 89.984375 85.136719 89.523438 L 85.136719 85.378906 L 84.390625 85.378906 C 84.367188 85.367188 84.351562 85.355469 84.339844 85.339844 C 84.328125 85.324219 84.324219 85.308594 84.324219 85.285156 C 84.324219 85.238281 84.332031 85.203125 84.355469 85.179688 C 84.375 85.152344 84.441406 85.097656 84.550781 85.003906 C 84.863281 84.746094 85.089844 84.535156 85.230469 84.371094 C 85.367188 84.210938 85.695312 83.789062 86.210938 83.09375 C 86.269531 83.09375 86.304688 83.097656 86.316406 83.109375 C 86.328125 83.117188 86.332031 83.152344 86.332031 83.210938 L 86.332031 84.886719 Z M 89.183594 82.371094 C 89.183594 82.175781 89.253906 82.003906 89.386719 81.863281 C 89.523438 81.722656 89.695312 81.652344 89.894531 81.652344 C 90.089844 81.652344 90.257812 81.722656 90.398438 81.859375 C 90.535156 82 90.605469 82.167969 90.605469 82.371094 C 90.605469 82.566406 90.535156 82.734375 90.398438 82.871094 C 90.257812 83.011719 90.089844 83.082031 89.894531 83.082031 C 89.695312 83.082031 89.527344 83.011719 89.386719 82.871094 C 89.25 82.734375 89.183594 82.566406 89.183594 82.371094 Z M 88.3125 91 C 88.796875 90.953125 89.105469 90.871094 89.230469 90.75 C 89.359375 90.628906 89.421875 90.300781 89.421875 89.769531 L 89.421875 86.507812 C 89.421875 86.210938 89.402344 86.007812 89.363281 85.894531 C 89.292969 85.707031 89.148438 85.613281 88.929688 85.613281 C 88.878906 85.613281 88.832031 85.617188 88.785156 85.628906 C 88.738281 85.636719 88.597656 85.671875 88.375 85.738281 L 88.375 85.523438 L 88.664062 85.429688 C 89.460938 85.167969 90.019531 84.972656 90.332031 84.839844 C 90.460938 84.785156 90.542969 84.757812 90.578125 84.757812 C 90.585938 84.789062 90.589844 84.824219 90.589844 84.863281 L 90.589844 89.769531 C 90.589844 90.289062 90.65625 90.613281 90.78125 90.746094 C 90.90625 90.878906 91.1875 90.964844 91.628906 91 L 91.628906 91.191406 L 88.3125 91.191406 Z M 92.28125 88.019531 C 92.28125 87.113281 92.570312 86.347656 93.144531 85.71875 C 93.722656 85.09375 94.464844 84.777344 95.371094 84.777344 C 96.273438 84.777344 97.019531 85.074219 97.613281 85.667969 C 98.207031 86.261719 98.503906 87.050781 98.503906 88.035156 C 98.503906 88.941406 98.214844 89.730469 97.640625 90.398438 C 97.066406 91.066406 96.324219 91.402344 95.410156 91.402344 C 94.535156 91.402344 93.796875 91.082031 93.191406 90.441406 C 92.585938 89.796875 92.28125 88.988281 92.28125 88.019531 Z M 95.179688 85.191406 C 94.820312 85.191406 94.507812 85.308594 94.242188 85.542969 C 93.785156 85.957031 93.558594 86.675781 93.558594 87.691406 C 93.558594 88.503906 93.742188 89.257812 94.109375 89.960938 C 94.476562 90.664062 94.984375 91.011719 95.636719 91.011719 C 96.148438 91.011719 96.542969 90.777344 96.816406 90.308594 C 97.09375 89.839844 97.230469 89.226562 97.230469 88.464844 C 97.230469 87.675781 97.054688 86.933594 96.703125 86.234375 C 96.351562 85.539062 95.84375 85.191406 95.179688 85.191406 Z M 99.179688 91 C 99.503906 90.957031 99.730469 90.878906 99.859375 90.757812 C 99.988281 90.636719 100.054688 90.367188 100.054688 89.949219 L 100.054688 86.480469 C 100.054688 86.191406 100.027344 85.984375 99.972656 85.867188 C 99.886719 85.691406 99.707031 85.605469 99.4375 85.605469 C 99.398438 85.605469 99.355469 85.609375 99.3125 85.613281 C 99.269531 85.617188 99.214844 85.625 99.152344 85.632812 L 99.152344 85.394531 C 99.339844 85.339844 99.78125 85.199219 100.476562 84.972656 L 101.121094 84.757812 C 101.152344 84.757812 101.171875 84.769531 101.179688 84.792969 C 101.183594 84.816406 101.1875 84.847656 101.1875 84.886719 L 101.1875 85.894531 C 101.605469 85.503906 101.9375 85.234375 102.171875 85.085938 C 102.527344 84.863281 102.898438 84.753906 103.28125 84.753906 C 103.589844 84.753906 103.871094 84.839844 104.128906 85.019531 C 104.621094 85.363281 104.867188 85.980469 104.867188 86.871094 L 104.867188 90.0625 C 104.867188 90.390625 104.933594 90.628906 105.066406 90.773438 C 105.199219 90.917969 105.417969 90.996094 105.726562 91 L 105.726562 91.191406 L 102.808594 91.191406 L 102.808594 91 C 103.140625 90.953125 103.375 90.863281 103.503906 90.722656 C 103.636719 90.582031 103.703125 90.28125 103.703125 89.816406 L 103.703125 86.898438 C 103.703125 86.507812 103.632812 86.183594 103.484375 85.925781 C 103.339844 85.667969 103.070312 85.539062 102.679688 85.539062 C 102.410156 85.539062 102.136719 85.628906 101.859375 85.8125 C 101.703125 85.917969 101.503906 86.089844 101.257812 86.332031 L 101.257812 90.160156 C 101.257812 90.488281 101.328125 90.707031 101.476562 90.820312 C 101.621094 90.929688 101.851562 90.992188 102.167969 91 L 102.167969 91.191406 L 99.179688 91.191406 Z M 49.179688 80.695312 "/>
<path style=" stroke:none;fill-rule:nonzero;fill:rgb(0%,0%,0%);fill-opacity:1;" d="M 157.769531 90.9375 C 158.339844 90.898438 158.707031 90.8125 158.875 90.683594 C 159.042969 90.550781 159.128906 90.214844 159.128906 89.675781 L 159.128906 83.449219 C 159.128906 82.933594 159.042969 82.605469 158.875 82.457031 C 158.707031 82.308594 158.339844 82.21875 157.769531 82.191406 L 157.769531 81.933594 L 161.910156 81.933594 L 161.910156 82.191406 C 161.339844 82.21875 160.972656 82.308594 160.804688 82.457031 C 160.636719 82.605469 160.550781 82.933594 160.550781 83.449219 L 160.550781 89.675781 C 160.550781 90.214844 160.636719 90.550781 160.804688 90.683594 C 160.972656 90.8125 161.339844 90.898438 161.910156 90.9375 L 161.910156 91.191406 L 157.769531 91.191406 Z M 162.457031 91 C 162.78125 90.957031 163.007812 90.878906 163.136719 90.757812 C 163.265625 90.636719 163.332031 90.367188 163.332031 89.949219 L 163.332031 86.480469 C 163.332031 86.191406 163.304688 85.984375 163.25 85.867188 C 163.164062 85.691406 162.984375 85.605469 162.714844 85.605469 C 162.675781 85.605469 162.632812 85.609375 162.589844 85.613281 C 162.546875 85.617188 162.492188 85.625 162.429688 85.632812 L 162.429688 85.394531 C 162.617188 85.339844 163.058594 85.199219 163.753906 84.972656 L 164.398438 84.757812 C 164.429688 84.757812 164.449219 84.769531 164.457031 84.792969 C 164.460938 84.816406 164.464844 84.847656 164.464844 84.886719 L 164.464844 85.894531 C 164.882812 85.503906 165.214844 85.234375 165.449219 85.085938 C 165.804688 84.863281 166.175781 84.753906 166.558594 84.753906 C 166.867188 84.753906 167.148438 84.839844 167.402344 85.019531 C 167.894531 85.363281 168.140625 85.980469 168.140625 86.871094 L 168.140625 90.0625 C 168.140625 90.390625 168.207031 90.628906 168.339844 90.773438 C 168.472656 90.917969 168.691406 90.996094 169 91 L 169 91.191406 L 166.085938 91.191406 L 166.085938 91 C 166.417969 90.953125 166.652344 90.863281 166.78125 90.722656 C 166.914062 90.582031 166.980469 90.28125 166.980469 89.816406 L 166.980469 86.898438 C 166.980469 86.507812 166.910156 86.183594 166.761719 85.925781 C 166.617188 85.667969 166.347656 85.539062 165.957031 85.539062 C 165.6875 85.539062 165.414062 85.628906 165.136719 85.8125 C 164.980469 85.917969 164.78125 86.089844 164.535156 86.332031 L 164.535156 90.160156 C 164.535156 90.488281 164.605469 90.707031 164.753906 90.820312 C 164.898438 90.929688 165.128906 90.992188 165.445312 91 L 165.445312 91.191406 L 162.457031 91.191406 Z M 172.679688 84.746094 C 173.25 84.746094 173.738281 84.890625 174.152344 85.1875 C 174.566406 85.480469 174.769531 85.800781 174.769531 86.152344 C 174.769531 86.304688 174.71875 86.445312 174.613281 86.574219 C 174.507812 86.703125 174.347656 86.769531 174.128906 86.769531 C 173.96875 86.769531 173.828125 86.714844 173.707031 86.605469 C 173.585938 86.496094 173.5 86.335938 173.445312 86.125 L 173.363281 85.796875 C 173.304688 85.554688 173.199219 85.386719 173.054688 85.285156 C 172.902344 85.191406 172.707031 85.140625 172.460938 85.140625 C 171.941406 85.140625 171.5 85.367188 171.144531 85.820312 C 170.785156 86.273438 170.605469 86.878906 170.605469 87.628906 C 170.605469 88.316406 170.804688 88.933594 171.199219 89.480469 C 171.59375 90.027344 172.125 90.300781 172.792969 90.300781 C 173.269531 90.300781 173.691406 90.148438 174.058594 89.839844 C 174.269531 89.660156 174.507812 89.378906 174.769531 88.988281 L 174.960938 89.105469 C 174.703125 89.652344 174.429688 90.085938 174.140625 90.40625 C 173.589844 91.015625 172.953125 91.320312 172.226562 91.320312 C 171.515625 91.320312 170.886719 91.042969 170.339844 90.480469 C 169.792969 89.917969 169.519531 89.160156 169.519531 88.199219 C 169.519531 87.253906 169.820312 86.441406 170.417969 85.761719 C 171.011719 85.082031 171.765625 84.746094 172.679688 84.746094 Z M 175.769531 88.019531 C 175.769531 87.113281 176.058594 86.347656 176.632812 85.71875 C 177.210938 85.09375 177.953125 84.777344 178.859375 84.777344 C 179.761719 84.777344 180.507812 85.074219 181.101562 85.667969 C 181.695312 86.261719 181.992188 87.050781 181.992188 88.035156 C 181.992188 88.941406 181.703125 89.730469 181.128906 90.398438 C 180.554688 91.066406 179.8125 91.402344 178.898438 91.402344 C 178.023438 91.402344 177.285156 91.082031 176.679688 90.441406 C 176.074219 89.796875 175.769531 88.988281 175.769531 88.019531 Z M 178.667969 85.191406 C 178.308594 85.191406 177.996094 85.308594 177.730469 85.542969 C 177.273438 85.957031 177.046875 86.675781 177.046875 87.691406 C 177.046875 88.503906 177.230469 89.257812 177.597656 89.960938 C 177.964844 90.664062 178.472656 91.011719 179.125 91.011719 C 179.636719 91.011719 180.03125 90.777344 180.304688 90.308594 C 180.582031 89.839844 180.71875 89.226562 180.71875 88.464844 C 180.71875 87.675781 180.542969 86.933594 180.191406 86.234375 C 179.839844 85.539062 179.332031 85.191406 178.667969 85.191406 Z M 182.640625 91.011719 C 182.996094 90.980469 183.230469 90.921875 183.351562 90.835938 C 183.53125 90.703125 183.625 90.441406 183.625 90.042969 L 183.625 86.507812 C 183.625 86.171875 183.578125 85.949219 183.492188 85.847656 C 183.402344 85.742188 183.253906 85.6875 183.050781 85.6875 C 182.953125 85.6875 182.882812 85.691406 182.835938 85.703125 C 182.789062 85.710938 182.730469 85.726562 182.667969 85.75 L 182.667969 85.511719 L 183.160156 85.347656 C 183.335938 85.289062 183.628906 85.179688 184.035156 85.027344 C 184.441406 84.871094 184.652344 84.792969 184.675781 84.792969 C 184.699219 84.792969 184.714844 84.804688 184.71875 84.828125 C 184.722656 84.851562 184.726562 84.894531 184.726562 84.957031 L 184.726562 85.878906 C 185.175781 85.46875 185.566406 85.1875 185.894531 85.027344 C 186.222656 84.871094 186.558594 84.792969 186.90625 84.792969 C 187.371094 84.792969 187.746094 84.953125 188.023438 85.269531 C 188.167969 85.445312 188.289062 85.679688 188.386719 85.976562 C 188.722656 85.632812 189.015625 85.378906 189.265625 85.214844 C 189.699219 84.933594 190.140625 84.792969 190.59375 84.792969 C 191.328125 84.792969 191.816406 85.089844 192.0625 85.6875 C 192.203125 86.027344 192.273438 86.558594 192.273438 87.289062 L 192.273438 90.125 C 192.273438 90.449219 192.347656 90.667969 192.488281 90.785156 C 192.632812 90.902344 192.890625 90.976562 193.265625 91.011719 L 193.265625 91.191406 L 190.183594 91.191406 L 190.183594 91 C 190.578125 90.964844 190.839844 90.882812 190.964844 90.761719 C 191.089844 90.636719 191.152344 90.386719 191.152344 90.007812 L 191.152344 87.0625 C 191.152344 86.621094 191.105469 86.292969 191.011719 86.085938 C 190.839844 85.710938 190.511719 85.523438 190.019531 85.523438 C 189.722656 85.523438 189.429688 85.621094 189.136719 85.816406 C 188.96875 85.933594 188.761719 86.113281 188.515625 86.363281 L 188.515625 89.863281 C 188.515625 90.234375 188.578125 90.515625 188.710938 90.707031 C 188.839844 90.898438 189.113281 91 189.535156 91.011719 L 189.535156 91.191406 L 186.398438 91.191406 L 186.398438 91.011719 C 186.832031 90.957031 187.105469 90.855469 187.222656 90.699219 C 187.339844 90.542969 187.402344 90.164062 187.402344 89.558594 L 187.402344 87.644531 C 187.402344 86.941406 187.355469 86.457031 187.261719 86.195312 C 187.113281 85.746094 186.796875 85.523438 186.3125 85.523438 C 186.03125 85.523438 185.757812 85.601562 185.492188 85.753906 C 185.222656 85.90625 184.984375 86.105469 184.78125 86.351562 L 184.78125 90.089844 C 184.78125 90.4375 184.839844 90.675781 184.960938 90.808594 C 185.082031 90.941406 185.34375 91.007812 185.75 91.011719 L 185.75 91.191406 L 182.640625 91.191406 Z M 196.507812 84.777344 C 197.148438 84.777344 197.710938 85 198.195312 85.445312 C 198.679688 85.890625 198.917969 86.519531 198.917969 87.335938 L 194.578125 87.335938 C 194.625 88.394531 194.863281 89.164062 195.296875 89.644531 C 195.730469 90.128906 196.242188 90.371094 196.835938 90.371094 C 197.3125 90.371094 197.714844 90.246094 198.042969 89.996094 C 198.371094 89.746094 198.675781 89.390625 198.953125 88.929688 L 199.191406 89.011719 C 199.003906 89.589844 198.65625 90.125 198.144531 90.617188 C 197.632812 91.109375 197.003906 91.355469 196.261719 91.355469 C 195.402344 91.355469 194.742188 91.03125 194.273438 90.386719 C 193.808594 89.738281 193.574219 88.992188 193.574219 88.148438 C 193.574219 87.234375 193.84375 86.441406 194.386719 85.777344 C 194.929688 85.113281 195.636719 84.777344 196.507812 84.777344 Z M 196.109375 85.277344 C 195.589844 85.277344 195.195312 85.507812 194.921875 85.96875 C 194.777344 86.214844 194.671875 86.523438 194.605469 86.898438 L 197.492188 86.898438 C 197.441406 86.441406 197.355469 86.101562 197.230469 85.878906 C 197.007812 85.480469 196.632812 85.277344 196.109375 85.277344 Z M 157.542969 80.695312 "/>
<path style="fill:none;stroke-width:1;stroke-linecap:butt;stroke-linejoin:miter;stroke:rgb(0%,0%,0%);stroke-opacity:1;stroke-miterlimit:4;" d="M 109.862432 -18.001365 C 118.399282 -18.001365 126.936132 -18.001365 135.476889 -18.001365 " transform="matrix(0.999802,0,0,0.999802,3.999206,104.989982)"/>
<path style="fill-rule:nonzero;fill:rgb(0%,0%,0%);fill-opacity:1;stroke-width:1;stroke-linecap:butt;stroke-linejoin:miter;stroke:rgb(0%,0%,0%);stroke-opacity:1;stroke-miterlimit:4;" d="M 135.500331 -21.498153 L 145.498408 -18.001365 L 135.500331 -14.500671 Z M 135.500331 -21.498153 " transform="matrix(0.999802,0,0,0.999802,3.999206,104.989982)"/>
<path style=" stroke:none;fill-rule:nonzero;fill:rgb(0%,0%,0%);fill-opacity:1;" d="M 12.148438 25.949219 C 12.664062 25.894531 13 25.804688 13.152344 25.671875 C 13.304688 25.542969 13.378906 25.214844 13.378906 24.691406 L 13.378906 18.460938 C 13.378906 17.964844 13.304688 17.640625 13.15625 17.488281 C 13.003906 17.335938 12.667969 17.242188 12.148438 17.203125 L 12.148438 16.945312 L 19.585938 16.945312 L 19.632812 18.953125 L 19.28125 18.953125 C 19.160156 18.332031 18.984375 17.933594 18.746094 17.75 C 18.507812 17.566406 17.980469 17.476562 17.160156 17.476562 L 15.257812 17.476562 C 15.054688 17.476562 14.929688 17.511719 14.878906 17.578125 C 14.832031 17.644531 14.808594 17.765625 14.808594 17.949219 L 14.808594 21.074219 L 16.960938 21.074219 C 17.558594 21.074219 17.9375 20.984375 18.101562 20.808594 C 18.265625 20.628906 18.398438 20.269531 18.5 19.726562 L 18.828125 19.726562 L 18.828125 22.964844 L 18.5 22.964844 C 18.394531 22.425781 18.261719 22.066406 18.097656 21.890625 C 17.933594 21.714844 17.554688 21.628906 16.960938 21.628906 L 14.808594 21.628906 L 14.808594 25.089844 C 14.808594 25.367188 14.894531 25.53125 15.070312 25.582031 C 15.246094 25.632812 15.773438 25.65625 16.648438 25.65625 C 17.59375 25.65625 18.296875 25.550781 18.746094 25.34375 C 19.195312 25.136719 19.601562 24.640625 19.960938 23.839844 L 20.351562 23.839844 L 19.71875 26.203125 L 12.148438 26.203125 Z M 20.605469 25.976562 C 21.023438 25.941406 21.300781 25.867188 21.4375 25.753906 C 21.574219 25.644531 21.644531 25.40625 21.644531 25.039062 L 21.644531 21.960938 C 21.644531 21.511719 21.601562 21.1875 21.515625 20.996094 C 21.433594 20.800781 21.277344 20.703125 21.054688 20.703125 C 21.011719 20.703125 20.949219 20.710938 20.875 20.722656 C 20.800781 20.734375 20.722656 20.746094 20.636719 20.765625 L 20.636719 20.539062 C 20.898438 20.449219 21.164062 20.355469 21.4375 20.261719 C 21.710938 20.164062 21.902344 20.097656 22.003906 20.054688 C 22.234375 19.96875 22.46875 19.871094 22.710938 19.761719 C 22.742188 19.761719 22.761719 19.773438 22.769531 19.792969 C 22.777344 19.816406 22.777344 19.867188 22.777344 19.9375 L 22.777344 21.058594 C 23.070312 20.652344 23.351562 20.335938 23.621094 20.109375 C 23.894531 19.882812 24.175781 19.769531 24.464844 19.769531 C 24.699219 19.769531 24.886719 19.835938 25.035156 19.976562 C 25.179688 20.113281 25.253906 20.289062 25.253906 20.5 C 25.253906 20.6875 25.195312 20.84375 25.085938 20.972656 C 24.972656 21.097656 24.832031 21.160156 24.664062 21.160156 C 24.492188 21.160156 24.316406 21.082031 24.140625 20.921875 C 23.964844 20.761719 23.828125 20.683594 23.730469 20.683594 C 23.570312 20.683594 23.371094 20.8125 23.140625 21.070312 C 22.910156 21.328125 22.792969 21.59375 22.792969 21.867188 L 22.792969 24.949219 C 22.792969 25.335938 22.882812 25.609375 23.066406 25.761719 C 23.246094 25.914062 23.550781 25.988281 23.972656 25.976562 L 23.972656 26.203125 L 20.605469 26.203125 Z M 25.269531 25.976562 C 25.6875 25.941406 25.964844 25.867188 26.101562 25.753906 C 26.238281 25.644531 26.308594 25.40625 26.308594 25.039062 L 26.308594 21.960938 C 26.308594 21.511719 26.265625 21.1875 26.179688 20.996094 C 26.097656 20.800781 25.941406 20.703125 25.71875 20.703125 C 25.675781 20.703125 25.613281 20.710938 25.539062 20.722656 C 25.464844 20.734375 25.386719 20.746094 25.300781 20.765625 L 25.300781 20.539062 C 25.5625 20.449219 25.828125 20.355469 26.101562 20.261719 C 26.375 20.164062 26.566406 20.097656 26.667969 20.054688 C 26.898438 19.96875 27.132812 19.871094 27.375 19.761719 C 27.40625 19.761719 27.425781 19.773438 27.433594 19.792969 C 27.441406 19.816406 27.441406 19.867188 27.441406 19.9375 L 27.441406 21.058594 C 27.734375 20.652344 28.015625 20.335938 28.285156 20.109375 C 28.558594 19.882812 28.839844 19.769531 29.128906 19.769531 C 29.363281 19.769531 29.546875 19.835938 29.695312 19.976562 C 29.839844 20.113281 29.914062 20.289062 29.914062 20.5 C 29.914062 20.6875 29.855469 20.84375 29.746094 20.972656 C 29.632812 21.097656 29.496094 21.160156 29.328125 21.160156 C 29.15625 21.160156 28.980469 21.082031 28.804688 20.921875 C 28.628906 20.761719 28.492188 20.683594 28.394531 20.683594 C 28.234375 20.683594 28.035156 20.8125 27.804688 21.070312 C 27.574219 21.328125 27.457031 21.59375 27.457031 21.867188 L 27.457031 24.949219 C 27.457031 25.335938 27.546875 25.609375 27.730469 25.761719 C 27.910156 25.914062 28.214844 25.988281 28.636719 25.976562 L 28.636719 26.203125 L 25.269531 26.203125 Z M 30.21875 23.035156 C 30.21875 22.128906 30.507812 21.363281 31.082031 20.734375 C 31.660156 20.109375 32.402344 19.792969 33.308594 19.792969 C 34.210938 19.792969 34.957031 20.089844 35.550781 20.683594 C 36.144531 21.277344 36.441406 22.066406 36.441406 23.050781 C 36.441406 23.957031 36.152344 24.746094 35.578125 25.410156 C 35.003906 26.078125 34.261719 26.414062 33.347656 26.414062 C 32.472656 26.414062 31.734375 26.09375 31.128906 25.453125 C 30.523438 24.8125 30.21875 24.003906 30.21875 23.035156 Z M 33.117188 20.207031 C 32.757812 20.207031 32.445312 20.324219 32.179688 20.558594 C 31.722656 20.972656 31.496094 21.691406 31.496094 22.707031 C 31.496094 23.519531 31.679688 24.273438 32.046875 24.972656 C 32.414062 25.675781 32.921875 26.023438 33.574219 26.023438 C 34.085938 26.023438 34.480469 25.789062 34.753906 25.320312 C 35.03125 24.855469 35.167969 24.242188 35.167969 23.480469 C 35.167969 22.691406 34.992188 21.949219 34.640625 21.25 C 34.289062 20.554688 33.78125 20.207031 33.117188 20.207031 Z M 36.925781 25.976562 C 37.34375 25.941406 37.621094 25.867188 37.757812 25.753906 C 37.894531 25.644531 37.964844 25.40625 37.964844 25.039062 L 37.964844 21.960938 C 37.964844 21.511719 37.921875 21.1875 37.835938 20.996094 C 37.753906 20.800781 37.597656 20.703125 37.375 20.703125 C 37.332031 20.703125 37.269531 20.710938 37.195312 20.722656 C 37.121094 20.734375 37.042969 20.746094 36.957031 20.765625 L 36.957031 20.539062 C 37.21875 20.449219 37.484375 20.355469 37.757812 20.261719 C 38.03125 20.164062 38.222656 20.097656 38.324219 20.054688 C 38.554688 19.96875 38.789062 19.871094 39.03125 19.761719 C 39.0625 19.761719 39.082031 19.773438 39.089844 19.792969 C 39.097656 19.816406 39.097656 19.867188 39.097656 19.9375 L 39.097656 21.058594 C 39.390625 20.652344 39.671875 20.335938 39.941406 20.109375 C 40.214844 19.882812 40.496094 19.769531 40.785156 19.769531 C 41.019531 19.769531 41.207031 19.835938 41.355469 19.976562 C 41.5 20.113281 41.574219 20.289062 41.574219 20.5 C 41.574219 20.6875 41.515625 20.84375 41.40625 20.972656 C 41.292969 21.097656 41.152344 21.160156 40.984375 21.160156 C 40.8125 21.160156 40.636719 21.082031 40.460938 20.921875 C 40.285156 20.761719 40.148438 20.683594 40.050781 20.683594 C 39.890625 20.683594 39.691406 20.8125 39.460938 21.070312 C 39.230469 21.328125 39.113281 21.59375 39.113281 21.867188 L 39.113281 24.949219 C 39.113281 25.335938 39.203125 25.609375 39.386719 25.761719 C 39.566406 25.914062 39.871094 25.988281 40.292969 25.976562 L 40.292969 26.203125 L 36.925781 26.203125 Z M 45.667969 22.691406 C 45.667969 21.105469 46.144531 19.714844 47.089844 18.515625 C 47.675781 17.78125 48.363281 17.191406 49.15625 16.746094 L 49.28125 16.972656 C 48.550781 17.554688 48.027344 18.121094 47.714844 18.675781 C 47.164062 19.636719 46.886719 20.917969 46.886719 22.515625 C 46.886719 23.699219 46.992188 24.679688 47.199219 25.445312 C 47.570312 26.792969 48.265625 27.804688 49.28125 28.472656 L 49.109375 28.699219 C 48.546875 28.429688 47.941406 27.902344 47.289062 27.117188 C 46.210938 25.820312 45.667969 24.347656 45.667969 22.691406 Z M 55.933594 22.613281 L 54.3125 18.753906 L 52.710938 22.613281 Z M 49.886719 26.203125 L 49.886719 25.949219 C 50.246094 25.910156 50.519531 25.773438 50.699219 25.539062 C 50.878906 25.308594 51.1875 24.679688 51.625 23.652344 L 54.542969 16.78125 L 54.816406 16.78125 L 58.304688 24.714844 C 58.535156 25.242188 58.722656 25.570312 58.859375 25.695312 C 59 25.820312 59.234375 25.90625 59.5625 25.949219 L 59.5625 26.203125 L 56 26.203125 L 56 25.949219 C 56.410156 25.914062 56.675781 25.871094 56.792969 25.816406 C 56.910156 25.765625 56.972656 25.636719 56.972656 25.429688 C 56.972656 25.363281 56.949219 25.242188 56.902344 25.070312 C 56.855469 24.898438 56.792969 24.714844 56.710938 24.527344 L 56.128906 23.179688 L 52.464844 23.179688 C 52.101562 24.09375 51.882812 24.652344 51.8125 24.855469 C 51.742188 25.054688 51.707031 25.214844 51.707031 25.335938 C 51.707031 25.570312 51.800781 25.734375 51.996094 25.828125 C 52.113281 25.882812 52.335938 25.921875 52.664062 25.949219 L 52.664062 26.203125 Z M 59.839844 17.511719 L 59.839844 17.277344 C 60.359375 17.160156 60.828125 17.027344 61.242188 16.882812 C 61.65625 16.738281 61.878906 16.664062 61.910156 16.664062 C 61.921875 16.691406 61.925781 16.71875 61.925781 16.746094 L 61.925781 20.910156 C 62.042969 20.691406 62.222656 20.484375 62.457031 20.285156 C 62.878906 19.945312 63.363281 19.773438 63.910156 19.773438 C 64.578125 19.773438 65.148438 20.058594 65.625 20.621094 C 66.097656 21.1875 66.335938 21.921875 66.335938 22.824219 C 66.335938 23.789062 66.027344 24.617188 65.410156 25.300781 C 64.796875 25.988281 63.988281 26.332031 62.984375 26.332031 C 62.480469 26.332031 61.984375 26.234375 61.496094 26.03125 C 61.007812 25.832031 60.761719 25.632812 60.761719 25.429688 L 60.761719 18.207031 C 60.761719 17.945312 60.726562 17.757812 60.652344 17.644531 C 60.582031 17.535156 60.414062 17.476562 60.148438 17.476562 Z M 61.898438 25.203125 C 61.941406 25.441406 62.117188 25.613281 62.433594 25.714844 C 62.746094 25.816406 63.023438 25.867188 63.257812 25.867188 C 63.894531 25.867188 64.371094 25.628906 64.675781 25.148438 C 64.984375 24.675781 65.136719 24.097656 65.136719 23.417969 C 65.136719 22.738281 64.996094 22.109375 64.707031 21.535156 C 64.421875 20.957031 63.957031 20.667969 63.3125 20.667969 C 62.988281 20.667969 62.671875 20.769531 62.363281 20.96875 C 62.054688 21.167969 61.898438 21.417969 61.898438 21.722656 Z M 67.941406 17.382812 C 67.941406 17.1875 68.011719 17.015625 68.144531 16.875 C 68.28125 16.734375 68.453125 16.664062 68.652344 16.664062 C 68.847656 16.664062 69.011719 16.734375 69.152344 16.871094 C 69.289062 17.011719 69.359375 17.179688 69.359375 17.382812 C 69.359375 17.578125 69.289062 17.746094 69.152344 17.882812 C 69.011719 18.023438 68.847656 18.09375 68.652344 18.09375 C 68.453125 18.09375 68.285156 18.023438 68.144531 17.882812 C 68.007812 17.746094 67.941406 17.578125 67.941406 17.382812 Z M 67.066406 26.011719 C 67.554688 25.964844 67.863281 25.882812 67.988281 25.761719 C 68.117188 25.640625 68.179688 25.3125 68.179688 24.785156 L 68.179688 21.523438 C 68.179688 21.226562 68.160156 21.023438 68.121094 20.910156 C 68.050781 20.722656 67.90625 20.628906 67.6875 20.628906 C 67.636719 20.628906 67.589844 20.632812 67.542969 20.644531 C 67.496094 20.652344 67.355469 20.6875 67.128906 20.753906 L 67.128906 20.539062 L 67.421875 20.445312 C 68.21875 20.183594 68.777344 19.988281 69.085938 19.855469 C 69.214844 19.800781 69.296875 19.773438 69.332031 19.773438 C 69.339844 19.804688 69.34375 19.839844 69.34375 19.878906 L 69.34375 24.785156 C 69.34375 25.300781 69.410156 25.625 69.535156 25.757812 C 69.660156 25.890625 69.941406 25.976562 70.382812 26.011719 L 70.382812 26.203125 L 67.066406 26.203125 Z M 70.96875 26.011719 C 71.390625 25.96875 71.679688 25.886719 71.828125 25.753906 C 71.976562 25.625 72.054688 25.371094 72.054688 24.992188 L 72.054688 18.316406 C 72.054688 18.015625 72.027344 17.808594 71.976562 17.695312 C 71.886719 17.503906 71.703125 17.410156 71.425781 17.410156 C 71.359375 17.410156 71.292969 17.417969 71.214844 17.429688 C 71.140625 17.441406 71.046875 17.464844 70.933594 17.492188 L 70.933594 17.265625 C 71.546875 17.101562 72.289062 16.882812 73.15625 16.609375 C 73.1875 16.609375 73.207031 16.621094 73.210938 16.652344 C 73.21875 16.679688 73.222656 16.738281 73.222656 16.828125 L 73.222656 25.019531 C 73.222656 25.417969 73.289062 25.671875 73.429688 25.789062 C 73.566406 25.90625 73.847656 25.980469 74.273438 26.011719 L 74.273438 26.203125 L 70.96875 26.203125 Z M 75.71875 17.382812 C 75.71875 17.1875 75.789062 17.015625 75.921875 16.875 C 76.058594 16.734375 76.230469 16.664062 76.429688 16.664062 C 76.625 16.664062 76.792969 16.734375 76.933594 16.871094 C 77.070312 17.011719 77.140625 17.179688 77.140625 17.382812 C 77.140625 17.578125 77.070312 17.746094 76.933594 17.882812 C 76.792969 18.023438 76.625 18.09375 76.429688 18.09375 C 76.230469 18.09375 76.0625 18.023438 75.921875 17.882812 C 75.785156 17.746094 75.71875 17.578125 75.71875 17.382812 Z M 74.84375 26.011719 C 75.332031 25.964844 75.640625 25.882812 75.765625 25.761719 C 75.894531 25.640625 75.957031 25.3125 75.957031 24.785156 L 75.957031 21.523438 C 75.957031 21.226562 75.9375 21.023438 75.898438 20.910156 C 75.828125 20.722656 75.683594 20.628906 75.464844 20.628906 C 75.414062 20.628906 75.367188 20.632812 75.320312 20.644531 C 75.273438 20.652344 75.132812 20.6875 74.90625 20.753906 L 74.90625 20.539062 L 75.199219 20.445312 C 75.996094 20.183594 76.554688 19.988281 76.867188 19.855469 C 76.996094 19.800781 77.078125 19.773438 77.113281 19.773438 C 77.121094 19.804688 77.125 19.839844 77.125 19.878906 L 77.125 24.785156 C 77.125 25.300781 77.191406 25.625 77.316406 25.757812 C 77.441406 25.890625 77.722656 25.976562 78.164062 26.011719 L 78.164062 26.203125 L 74.84375 26.203125 Z M 82.023438 19.902344 L 82.023438 20.394531 L 80.628906 20.394531 L 80.613281 24.332031 C 80.613281 24.679688 80.644531 24.941406 80.703125 25.117188 C 80.8125 25.429688 81.027344 25.585938 81.34375 25.585938 C 81.507812 25.585938 81.652344 25.550781 81.773438 25.472656 C 81.894531 25.394531 82.03125 25.269531 82.1875 25.101562 L 82.363281 25.253906 L 82.214844 25.457031 C 81.976562 25.777344 81.726562 26.003906 81.460938 26.132812 C 81.195312 26.265625 80.941406 26.332031 80.695312 26.332031 C 80.15625 26.332031 79.792969 26.09375 79.601562 25.617188 C 79.496094 25.355469 79.445312 24.996094 79.445312 24.539062 L 79.445312 20.394531 L 78.699219 20.394531 C 78.675781 20.382812 78.660156 20.371094 78.648438 20.355469 C 78.636719 20.339844 78.632812 20.324219 78.632812 20.300781 C 78.632812 20.253906 78.640625 20.21875 78.664062 20.195312 C 78.683594 20.167969 78.75 20.113281 78.859375 20.019531 C 79.171875 19.761719 79.398438 19.550781 79.539062 19.386719 C 79.675781 19.226562 80.003906 18.800781 80.519531 18.105469 C 80.578125 18.105469 80.613281 18.109375 80.625 18.121094 C 80.636719 18.128906 80.640625 18.164062 80.640625 18.222656 L 80.640625 19.902344 Z M 82.542969 19.925781 L 85.429688 19.925781 L 85.429688 20.136719 C 85.199219 20.140625 85.03125 20.160156 84.921875 20.199219 C 84.710938 20.257812 84.609375 20.375 84.609375 20.546875 C 84.609375 20.609375 84.617188 20.675781 84.640625 20.742188 C 84.664062 20.808594 84.707031 20.90625 84.765625 21.039062 L 86.363281 24.585938 L 87.648438 21.011719 C 87.664062 20.976562 87.683594 20.894531 87.714844 20.765625 C 87.742188 20.636719 87.757812 20.550781 87.757812 20.503906 C 87.757812 20.386719 87.71875 20.300781 87.636719 20.246094 C 87.554688 20.191406 87.449219 20.160156 87.320312 20.152344 L 87.109375 20.136719 L 87.109375 19.925781 L 88.984375 19.925781 L 88.984375 20.136719 C 88.796875 20.160156 88.660156 20.222656 88.570312 20.328125 C 88.476562 20.433594 88.394531 20.578125 88.328125 20.765625 L 86.171875 26.460938 C 85.796875 27.445312 85.441406 28.160156 85.101562 28.601562 C 84.757812 29.042969 84.324219 29.265625 83.800781 29.265625 C 83.546875 29.265625 83.304688 29.203125 83.082031 29.074219 C 82.859375 28.945312 82.75 28.742188 82.75 28.464844 C 82.75 28.28125 82.816406 28.132812 82.949219 28.019531 C 83.085938 27.902344 83.253906 27.84375 83.460938 27.84375 C 83.578125 27.84375 83.753906 27.886719 83.988281 27.972656 C 84.222656 28.058594 84.390625 28.101562 84.492188 28.101562 C 84.746094 28.101562 85.015625 27.808594 85.296875 27.214844 C 85.578125 26.621094 85.722656 26.226562 85.722656 26.023438 C 85.722656 25.984375 85.714844 25.933594 85.703125 25.875 C 85.6875 25.816406 85.671875 25.761719 85.652344 25.71875 L 83.464844 20.992188 C 83.3125 20.652344 83.175781 20.433594 83.058594 20.324219 C 82.941406 20.21875 82.769531 20.148438 82.542969 20.117188 Z M 96.328125 19.132812 L 97.285156 19.132812 L 97.285156 22.195312 L 100.332031 22.195312 L 100.332031 23.152344 L 97.285156 23.152344 L 97.285156 26.203125 L 96.328125 26.203125 L 96.328125 23.152344 L 93.265625 23.152344 L 93.265625 22.195312 L 96.328125 22.195312 Z M 104.597656 23.035156 C 104.597656 22.128906 104.886719 21.363281 105.460938 20.734375 C 106.039062 20.109375 106.78125 19.792969 107.6875 19.792969 C 108.585938 19.792969 109.332031 20.089844 109.925781 20.683594 C 110.519531 21.277344 110.816406 22.066406 110.816406 23.050781 C 110.816406 23.957031 110.527344 24.746094 109.953125 25.410156 C 109.378906 26.078125 108.636719 26.414062 107.726562 26.414062 C 106.851562 26.414062 106.113281 26.09375 105.507812 25.453125 C 104.902344 24.8125 104.597656 24.003906 104.597656 23.035156 Z M 107.496094 20.207031 C 107.136719 20.207031 106.824219 20.324219 106.558594 20.558594 C 106.101562 20.972656 105.875 21.691406 105.875 22.707031 C 105.875 23.519531 106.058594 24.273438 106.425781 24.972656 C 106.792969 25.675781 107.300781 26.023438 107.953125 26.023438 C 108.460938 26.023438 108.855469 25.789062 109.128906 25.320312 C 109.40625 24.855469 109.542969 24.242188 109.542969 23.480469 C 109.542969 22.691406 109.367188 21.949219 109.015625 21.25 C 108.664062 20.554688 108.160156 20.207031 107.496094 20.207031 Z M 114.800781 19.902344 L 114.800781 20.394531 L 113.40625 20.394531 L 113.390625 24.332031 C 113.390625 24.679688 113.421875 24.941406 113.480469 25.117188 C 113.589844 25.429688 113.804688 25.585938 114.121094 25.585938 C 114.285156 25.585938 114.429688 25.550781 114.550781 25.472656 C 114.671875 25.394531 114.808594 25.269531 114.964844 25.101562 L 115.140625 25.253906 L 114.992188 25.457031 C 114.753906 25.777344 114.503906 26.003906 114.238281 26.132812 C 113.972656 26.265625 113.71875 26.332031 113.472656 26.332031 C 112.933594 26.332031 112.570312 26.09375 112.378906 25.617188 C 112.273438 25.355469 112.222656 24.996094 112.222656 24.539062 L 112.222656 20.394531 L 111.476562 20.394531 C 111.453125 20.382812 111.4375 20.371094 111.425781 20.355469 C 111.414062 20.339844 111.410156 20.324219 111.410156 20.300781 C 111.410156 20.253906 111.417969 20.21875 111.441406 20.195312 C 111.460938 20.167969 111.527344 20.113281 111.636719 20.019531 C 111.949219 19.761719 112.175781 19.550781 112.316406 19.386719 C 112.453125 19.226562 112.78125 18.800781 113.296875 18.105469 C 113.355469 18.105469 113.390625 18.109375 113.402344 18.121094 C 113.414062 18.128906 113.417969 18.164062 113.417969 18.222656 L 113.417969 19.902344 Z M 115.25 26.011719 C 115.621094 25.960938 115.867188 25.871094 115.984375 25.734375 C 116.101562 25.601562 116.15625 25.28125 116.15625 24.785156 L 116.15625 18.222656 C 116.15625 17.96875 116.125 17.78125 116.058594 17.660156 C 115.992188 17.539062 115.832031 17.476562 115.578125 17.476562 C 115.527344 17.476562 115.476562 17.480469 115.429688 17.488281 C 115.382812 17.496094 115.328125 17.503906 115.269531 17.511719 L 115.269531 17.265625 C 115.46875 17.207031 115.714844 17.132812 116.011719 17.050781 C 116.304688 16.964844 116.507812 16.90625 116.621094 16.871094 L 117.277344 16.664062 L 117.292969 16.710938 L 117.292969 20.910156 C 117.578125 20.582031 117.835938 20.339844 118.058594 20.183594 C 118.460938 19.910156 118.890625 19.773438 119.355469 19.773438 C 120.09375 19.773438 120.597656 20.085938 120.867188 20.703125 C 121.011719 21.03125 121.085938 21.464844 121.085938 21.996094 L 121.085938 24.785156 C 121.085938 25.265625 121.140625 25.578125 121.253906 25.726562 C 121.367188 25.871094 121.59375 25.964844 121.941406 26.011719 L 121.941406 26.203125 L 118.980469 26.203125 L 118.980469 26.011719 C 119.375 25.957031 119.632812 25.863281 119.746094 25.730469 C 119.859375 25.597656 119.917969 25.28125 119.917969 24.785156 L 119.917969 22.015625 C 119.917969 21.574219 119.84375 21.214844 119.695312 20.941406 C 119.546875 20.667969 119.265625 20.535156 118.859375 20.535156 C 118.503906 20.535156 118.15625 20.660156 117.824219 20.917969 C 117.492188 21.171875 117.328125 21.335938 117.328125 21.414062 L 117.328125 24.785156 C 117.328125 25.292969 117.386719 25.609375 117.503906 25.738281 C 117.621094 25.867188 117.875 25.957031 118.261719 26.011719 L 118.261719 26.203125 L 115.25 26.203125 Z M 125.332031 19.792969 C 125.972656 19.792969 126.535156 20.015625 127.019531 20.460938 C 127.503906 20.90625 127.742188 21.535156 127.742188 22.351562 L 123.402344 22.351562 C 123.449219 23.410156 123.6875 24.179688 124.121094 24.660156 C 124.554688 25.140625 125.066406 25.382812 125.660156 25.382812 C 126.136719 25.382812 126.539062 25.257812 126.867188 25.007812 C 127.195312 24.761719 127.5 24.40625 127.777344 23.945312 L 128.011719 24.027344 C 127.828125 24.605469 127.480469 25.136719 126.96875 25.628906 C 126.457031 26.121094 125.828125 26.367188 125.085938 26.367188 C 124.226562 26.367188 123.566406 26.042969 123.097656 25.398438 C 122.632812 24.753906 122.398438 24.007812 122.398438 23.164062 C 122.398438 22.25 122.667969 21.457031 123.210938 20.792969 C 123.753906 20.128906 124.460938 19.792969 125.332031 19.792969 Z M 124.933594 20.292969 C 124.414062 20.292969 124.019531 20.523438 123.746094 20.984375 C 123.601562 21.230469 123.496094 21.539062 123.429688 21.914062 L 126.316406 21.914062 C 126.265625 21.457031 126.179688 21.117188 126.054688 20.894531 C 125.832031 20.496094 125.457031 20.292969 124.933594 20.292969 Z M 128.398438 25.976562 C 128.816406 25.941406 129.09375 25.867188 129.230469 25.753906 C 129.367188 25.644531 129.4375 25.40625 129.4375 25.039062 L 129.4375 21.960938 C 129.4375 21.511719 129.394531 21.1875 129.308594 20.996094 C 129.226562 20.800781 129.070312 20.703125 128.847656 20.703125 C 128.804688 20.703125 128.742188 20.710938 128.667969 20.722656 C 128.59375 20.734375 128.515625 20.746094 128.429688 20.765625 L 128.429688 20.539062 C 128.691406 20.449219 128.957031 20.355469 129.230469 20.261719 C 129.503906 20.164062 129.695312 20.097656 129.796875 20.054688 C 130.027344 19.96875 130.261719 19.871094 130.503906 19.761719 C 130.535156 19.761719 130.554688 19.773438 130.5625 19.792969 C 130.570312 19.816406 130.570312 19.867188 130.570312 19.9375 L 130.570312 21.058594 C 130.863281 20.652344 131.144531 20.335938 131.414062 20.109375 C 131.6875 19.882812 131.96875 19.769531 132.257812 19.769531 C 132.492188 19.769531 132.679688 19.835938 132.828125 19.976562 C 132.972656 20.113281 133.046875 20.289062 133.046875 20.5 C 133.046875 20.6875 132.988281 20.84375 132.878906 20.972656 C 132.765625 21.097656 132.625 21.160156 132.457031 21.160156 C 132.285156 21.160156 132.109375 21.082031 131.933594 20.921875 C 131.757812 20.761719 131.621094 20.683594 131.523438 20.683594 C 131.363281 20.683594 131.164062 20.8125 130.933594 21.070312 C 130.703125 21.328125 130.585938 21.59375 130.585938 21.867188 L 130.585938 24.949219 C 130.585938 25.335938 130.675781 25.609375 130.859375 25.761719 C 131.039062 25.914062 131.34375 25.988281 131.765625 25.976562 L 131.765625 26.203125 L 128.398438 26.203125 Z M 133.726562 24.054688 L 133.949219 24.054688 C 134.054688 24.574219 134.195312 24.96875 134.375 25.246094 C 134.695312 25.757812 135.160156 26.011719 135.773438 26.011719 C 136.117188 26.011719 136.386719 25.917969 136.585938 25.726562 C 136.785156 25.539062 136.882812 25.292969 136.882812 24.992188 C 136.882812 24.804688 136.824219 24.621094 136.710938 24.441406 C 136.597656 24.265625 136.398438 24.09375 136.109375 23.925781 L 135.34375 23.488281 C 134.785156 23.1875 134.371094 22.882812 134.109375 22.578125 C 133.84375 22.273438 133.710938 21.910156 133.710938 21.496094 C 133.710938 20.988281 133.894531 20.566406 134.257812 20.238281 C 134.621094 19.910156 135.082031 19.746094 135.632812 19.746094 C 135.875 19.746094 136.140625 19.792969 136.429688 19.882812 C 136.71875 19.972656 136.878906 20.019531 136.917969 20.019531 C 137 20.019531 137.058594 20.007812 137.09375 19.988281 C 137.132812 19.964844 137.164062 19.925781 137.191406 19.878906 L 137.355469 19.878906 L 137.402344 21.785156 L 137.191406 21.785156 C 137.101562 21.34375 136.976562 20.996094 136.820312 20.753906 C 136.539062 20.296875 136.132812 20.066406 135.597656 20.066406 C 135.277344 20.066406 135.027344 20.167969 134.84375 20.363281 C 134.664062 20.558594 134.570312 20.789062 134.570312 21.050781 C 134.570312 21.472656 134.886719 21.847656 135.515625 22.175781 L 136.417969 22.660156 C 137.390625 23.1875 137.875 23.804688 137.875 24.503906 C 137.875 25.039062 137.671875 25.476562 137.269531 25.820312 C 136.867188 26.164062 136.339844 26.332031 135.6875 26.332031 C 135.414062 26.332031 135.101562 26.289062 134.757812 26.195312 C 134.410156 26.105469 134.207031 26.058594 134.140625 26.058594 C 134.085938 26.058594 134.039062 26.078125 134 26.117188 C 133.957031 26.15625 133.925781 26.203125 133.902344 26.257812 L 133.726562 26.257812 Z M 142.433594 22.761719 C 142.433594 23.441406 142.347656 24.082031 142.167969 24.691406 C 141.988281 25.292969 141.730469 25.863281 141.386719 26.402344 C 141.027344 26.976562 140.546875 27.511719 139.945312 28.007812 C 139.550781 28.335938 139.21875 28.566406 138.949219 28.699219 L 138.816406 28.472656 C 139.519531 27.9375 140.03125 27.394531 140.355469 26.839844 C 140.929688 25.855469 141.21875 24.558594 141.21875 22.941406 C 141.21875 21.632812 141.085938 20.5625 140.820312 19.734375 C 140.453125 18.5625 139.785156 17.640625 138.816406 16.972656 L 138.996094 16.746094 C 139.714844 17.148438 140.386719 17.753906 141.003906 18.566406 C 141.957031 19.8125 142.433594 21.210938 142.433594 22.761719 Z M 11.992188 15.707031 "/>
<path style="fill:none;stroke-width:1;stroke-linecap:butt;stroke-linejoin:miter;stroke:rgb(0%,0%,0%);stroke-opacity:1;stroke-miterlimit:4;" d="M 73.566169 -64.89348 C 73.566169 -59.118897 73.566169 -52.582444 73.566169 -46.264785 " transform="matrix(0.999802,0,0,0.999802,3.999206,104.989982)"/>
<path style="fill-rule:nonzero;fill:rgb(0%,0%,0%);fill-opacity:1;stroke-width:1;stroke-linecap:butt;stroke-linejoin:miter;stroke:rgb(0%,0%,0%);stroke-opacity:1;stroke-miterlimit:4;" d="M 77.062957 -46.010828 L 73.566169 -36.008844 L 70.065475 -46.010828 Z M 77.062957 -46.010828 " transform="matrix(0.999802,0,0,0.999802,3.999206,104.989982)"/>
<path style="fill:none;stroke-width:1;stroke-linecap:butt;stroke-linejoin:miter;stroke:rgb(0%,0%,0%);stroke-opacity:1;stroke-miterlimit:4;" d="M 101.700657 -64.89348 C 112.972424 -57.638135 126.107843 -49.18724 138.098503 -41.470865 " transform="matrix(0.999802,0,0,0.999802,3.999206,104.989982)"/>
<path style="fill-rule:nonzero;fill:rgb(0%,0%,0%);fill-opacity:1;stroke-width:1;stroke-linecap:butt;stroke-linejoin:miter;stroke:rgb(0%,0%,0%);stroke-opacity:1;stroke-miterlimit:4;" d="M 140.067643 -44.362064 L 146.580654 -36.008844 L 136.277829 -38.478084 Z M 140.067643 -44.362064 " transform="matrix(0.999802,0,0,0.999802,3.999206,104.989982)"/>
<path style=" stroke:none;fill-rule:nonzero;fill:rgb(0%,0%,0%);fill-opacity:1;" d="M 177.207031 25.949219 C 177.722656 25.894531 178.058594 25.804688 178.210938 25.671875 C 178.363281 25.542969 178.4375 25.214844 178.4375 24.691406 L 178.4375 18.460938 C 178.4375 17.964844 178.363281 17.640625 178.214844 17.488281 C 178.0625 17.335938 177.726562 17.242188 177.207031 17.203125 L 177.207031 16.945312 L 184.644531 16.945312 L 184.691406 18.953125 L 184.339844 18.953125 C 184.21875 18.332031 184.042969 17.933594 183.804688 17.75 C 183.566406 17.566406 183.039062 17.476562 182.21875 17.476562 L 180.316406 17.476562 C 180.113281 17.476562 179.988281 17.511719 179.9375 17.578125 C 179.890625 17.644531 179.867188 17.765625 179.867188 17.949219 L 179.867188 21.074219 L 182.019531 21.074219 C 182.617188 21.074219 182.996094 20.984375 183.160156 20.808594 C 183.324219 20.628906 183.457031 20.269531 183.558594 19.726562 L 183.886719 19.726562 L 183.886719 22.964844 L 183.558594 22.964844 C 183.453125 22.425781 183.320312 22.066406 183.15625 21.890625 C 182.992188 21.714844 182.613281 21.628906 182.019531 21.628906 L 179.867188 21.628906 L 179.867188 25.089844 C 179.867188 25.367188 179.953125 25.53125 180.128906 25.582031 C 180.304688 25.632812 180.832031 25.65625 181.707031 25.65625 C 182.652344 25.65625 183.355469 25.550781 183.804688 25.34375 C 184.253906 25.136719 184.660156 24.640625 185.019531 23.839844 L 185.410156 23.839844 L 184.777344 26.203125 L 177.207031 26.203125 Z M 188.839844 19.925781 L 188.839844 20.117188 C 188.664062 20.121094 188.519531 20.144531 188.398438 20.1875 C 188.277344 20.230469 188.214844 20.320312 188.214844 20.457031 C 188.214844 20.542969 188.335938 20.789062 188.578125 21.191406 C 188.707031 21.398438 188.867188 21.65625 189.0625 21.960938 C 189.332031 21.59375 189.53125 21.304688 189.664062 21.09375 C 189.886719 20.757812 190 20.539062 190 20.4375 C 190 20.320312 189.953125 20.238281 189.855469 20.199219 C 189.761719 20.15625 189.625 20.128906 189.453125 20.117188 L 189.453125 19.925781 L 191.652344 19.925781 L 191.652344 20.117188 C 191.421875 20.136719 191.207031 20.195312 191.003906 20.304688 C 190.804688 20.410156 190.644531 20.554688 190.519531 20.730469 L 189.351562 22.417969 L 191.15625 25.148438 C 191.386719 25.503906 191.585938 25.734375 191.746094 25.839844 C 191.910156 25.945312 192.09375 26.003906 192.304688 26.011719 L 192.304688 26.203125 L 189.480469 26.203125 L 189.480469 26.011719 L 189.679688 26 C 189.785156 25.988281 189.871094 25.957031 189.941406 25.902344 C 190.011719 25.847656 190.046875 25.78125 190.046875 25.695312 C 190.046875 25.609375 189.960938 25.417969 189.789062 25.125 C 189.707031 24.976562 189.582031 24.78125 189.417969 24.53125 C 189.339844 24.410156 189.226562 24.238281 189.074219 24.019531 C 188.921875 23.800781 188.792969 23.613281 188.6875 23.457031 L 187.585938 25.171875 C 187.453125 25.375 187.371094 25.511719 187.339844 25.582031 C 187.308594 25.648438 187.292969 25.707031 187.292969 25.75 C 187.292969 25.835938 187.328125 25.894531 187.398438 25.921875 C 187.46875 25.949219 187.625 25.980469 187.859375 26.011719 L 187.859375 26.203125 L 185.839844 26.203125 L 185.839844 26.011719 C 186.085938 25.960938 186.269531 25.898438 186.386719 25.820312 C 186.507812 25.742188 186.664062 25.5625 186.859375 25.28125 L 188.449219 22.964844 L 187.136719 20.976562 C 186.875 20.582031 186.691406 20.347656 186.59375 20.273438 C 186.492188 20.199219 186.273438 20.148438 185.9375 20.117188 L 185.9375 19.925781 Z M 194.832031 24.949219 C 194.949219 25.253906 195.128906 25.488281 195.363281 25.640625 C 195.597656 25.792969 195.875 25.867188 196.191406 25.867188 C 196.683594 25.867188 197.105469 25.625 197.453125 25.132812 C 197.800781 24.648438 197.976562 23.964844 197.976562 23.089844 C 197.976562 22.25 197.796875 21.625 197.433594 21.210938 C 197.070312 20.796875 196.652344 20.589844 196.171875 20.589844 C 195.835938 20.589844 195.527344 20.691406 195.25 20.898438 C 194.972656 21.105469 194.832031 21.308594 194.832031 21.511719 Z M 192.660156 29.027344 C 193.089844 29 193.359375 28.90625 193.476562 28.753906 C 193.59375 28.597656 193.652344 28.355469 193.652344 28.023438 L 193.652344 21.464844 C 193.652344 21.117188 193.609375 20.894531 193.523438 20.796875 C 193.441406 20.699219 193.28125 20.648438 193.050781 20.648438 C 193 20.648438 192.953125 20.652344 192.910156 20.65625 C 192.867188 20.660156 192.800781 20.667969 192.722656 20.683594 L 192.722656 20.457031 L 193.371094 20.246094 C 193.394531 20.242188 193.851562 20.085938 194.746094 19.773438 C 194.769531 19.773438 194.785156 19.785156 194.796875 19.804688 C 194.808594 19.824219 194.8125 19.847656 194.8125 19.878906 L 194.8125 20.800781 C 195.113281 20.5 195.378906 20.277344 195.605469 20.128906 C 196.015625 19.875 196.4375 19.746094 196.871094 19.746094 C 197.5 19.746094 198.039062 20.015625 198.492188 20.550781 C 198.945312 21.085938 199.175781 21.816406 199.175781 22.746094 C 199.175781 23.660156 198.902344 24.488281 198.355469 25.226562 C 197.8125 25.96875 197.128906 26.339844 196.300781 26.339844 C 196.046875 26.339844 195.828125 26.308594 195.640625 26.242188 C 195.347656 26.148438 195.078125 25.972656 194.832031 25.71875 L 194.832031 27.953125 C 194.832031 28.414062 194.910156 28.695312 195.058594 28.800781 C 195.207031 28.90625 195.535156 28.976562 196.042969 29.011719 L 196.042969 29.25 L 192.660156 29.25 Z M 202.804688 19.792969 C 203.445312 19.792969 204.007812 20.015625 204.492188 20.460938 C 204.976562 20.90625 205.214844 21.535156 205.214844 22.351562 L 200.875 22.351562 C 200.921875 23.410156 201.160156 24.179688 201.59375 24.660156 C 202.027344 25.140625 202.539062 25.382812 203.132812 25.382812 C 203.609375 25.382812 204.011719 25.257812 204.339844 25.007812 C 204.667969 24.761719 204.972656 24.40625 205.25 23.945312 L 205.488281 24.027344 C 205.300781 24.605469 204.953125 25.136719 204.441406 25.628906 C 203.929688 26.121094 203.300781 26.367188 202.558594 26.367188 C 201.699219 26.367188 201.039062 26.042969 200.570312 25.398438 C 200.105469 24.753906 199.871094 24.007812 199.871094 23.164062 C 199.871094 22.25 200.140625 21.457031 200.683594 20.792969 C 201.226562 20.128906 201.933594 19.792969 202.804688 19.792969 Z M 202.40625 20.292969 C 201.886719 20.292969 201.492188 20.523438 201.21875 20.984375 C 201.074219 21.230469 200.96875 21.539062 200.902344 21.914062 L 203.789062 21.914062 C 203.738281 21.457031 203.652344 21.117188 203.527344 20.894531 C 203.304688 20.496094 202.929688 20.292969 202.40625 20.292969 Z M 205.875 25.976562 C 206.292969 25.941406 206.570312 25.867188 206.707031 25.753906 C 206.839844 25.644531 206.910156 25.40625 206.910156 25.039062 L 206.910156 21.960938 C 206.910156 21.511719 206.867188 21.1875 206.78125 20.996094 C 206.703125 20.800781 206.546875 20.703125 206.324219 20.703125 C 206.28125 20.703125 206.21875 20.710938 206.144531 20.722656 C 206.070312 20.734375 205.992188 20.746094 205.90625 20.765625 L 205.90625 20.539062 C 206.167969 20.449219 206.433594 20.355469 206.707031 20.261719 C 206.976562 20.164062 207.167969 20.097656 207.269531 20.054688 C 207.5 19.96875 207.734375 19.871094 207.976562 19.761719 C 208.007812 19.761719 208.027344 19.773438 208.035156 19.792969 C 208.042969 19.816406 208.042969 19.867188 208.042969 19.9375 L 208.042969 21.058594 C 208.335938 20.652344 208.617188 20.335938 208.886719 20.109375 C 209.160156 19.882812 209.441406 19.769531 209.730469 19.769531 C 209.964844 19.769531 210.152344 19.835938 210.300781 19.976562 C 210.445312 20.113281 210.519531 20.289062 210.519531 20.5 C 210.519531 20.6875 210.460938 20.84375 210.351562 20.972656 C 210.238281 21.097656 210.097656 21.160156 209.929688 21.160156 C 209.757812 21.160156 209.582031 21.082031 209.40625 20.921875 C 209.230469 20.761719 209.09375 20.683594 208.996094 20.683594 C 208.835938 20.683594 208.636719 20.8125 208.40625 21.070312 C 208.175781 21.328125 208.058594 21.59375 208.058594 21.867188 L 208.058594 24.949219 C 208.058594 25.335938 208.148438 25.609375 208.332031 25.761719 C 208.511719 25.914062 208.816406 25.988281 209.238281 25.976562 L 209.238281 26.203125 L 205.875 26.203125 Z M 211.621094 17.382812 C 211.621094 17.1875 211.691406 17.015625 211.824219 16.875 C 211.960938 16.734375 212.132812 16.664062 212.332031 16.664062 C 212.527344 16.664062 212.695312 16.734375 212.835938 16.871094 C 212.972656 17.011719 213.042969 17.179688 213.042969 17.382812 C 213.042969 17.578125 212.972656 17.746094 212.835938 17.882812 C 212.695312 18.023438 212.527344 18.09375 212.332031 18.09375 C 212.132812 18.09375 211.964844 18.023438 211.824219 17.882812 C 211.6875 17.746094 211.621094 17.578125 211.621094 17.382812 Z M 210.746094 26.011719 C 211.234375 25.964844 211.542969 25.882812 211.667969 25.761719 C 211.796875 25.640625 211.859375 25.3125 211.859375 24.785156 L 211.859375 21.523438 C 211.859375 21.226562 211.839844 21.023438 211.800781 20.910156 C 211.730469 20.722656 211.585938 20.628906 211.367188 20.628906 C 211.316406 20.628906 211.269531 20.632812 211.222656 20.644531 C 211.175781 20.652344 211.035156 20.6875 210.808594 20.753906 L 210.808594 20.539062 L 211.101562 20.445312 C 211.898438 20.183594 212.457031 19.988281 212.769531 19.855469 C 212.898438 19.800781 212.980469 19.773438 213.015625 19.773438 C 213.023438 19.804688 213.027344 19.839844 213.027344 19.878906 L 213.027344 24.785156 C 213.027344 25.300781 213.09375 25.625 213.21875 25.757812 C 213.34375 25.890625 213.625 25.976562 214.066406 26.011719 L 214.066406 26.203125 L 210.746094 26.203125 Z M 217.566406 19.792969 C 218.207031 19.792969 218.769531 20.015625 219.253906 20.460938 C 219.738281 20.90625 219.976562 21.535156 219.976562 22.351562 L 215.636719 22.351562 C 215.683594 23.410156 215.921875 24.179688 216.355469 24.660156 C 216.789062 25.140625 217.300781 25.382812 217.894531 25.382812 C 218.371094 25.382812 218.773438 25.257812 219.101562 25.007812 C 219.429688 24.761719 219.734375 24.40625 220.011719 23.945312 L 220.25 24.027344 C 220.0625 24.605469 219.714844 25.136719 219.203125 25.628906 C 218.691406 26.121094 218.0625 26.367188 217.320312 26.367188 C 216.460938 26.367188 215.800781 26.042969 215.332031 25.398438 C 214.867188 24.753906 214.632812 24.007812 214.632812 23.164062 C 214.632812 22.25 214.902344 21.457031 215.445312 20.792969 C 215.988281 20.128906 216.695312 19.792969 217.566406 19.792969 Z M 217.167969 20.292969 C 216.648438 20.292969 216.253906 20.523438 215.980469 20.984375 C 215.835938 21.230469 215.730469 21.539062 215.664062 21.914062 L 218.550781 21.914062 C 218.5 21.457031 218.414062 21.117188 218.289062 20.894531 C 218.066406 20.496094 217.691406 20.292969 217.167969 20.292969 Z M 220.828125 26.011719 C 221.152344 25.96875 221.378906 25.890625 221.507812 25.769531 C 221.636719 25.648438 221.703125 25.378906 221.703125 24.964844 L 221.703125 21.496094 C 221.703125 21.207031 221.675781 21 221.621094 20.882812 C 221.535156 20.707031 221.355469 20.621094 221.085938 20.621094 C 221.046875 20.621094 221.003906 20.625 220.960938 20.628906 C 220.917969 20.632812 220.863281 20.640625 220.800781 20.648438 L 220.800781 20.410156 C 220.988281 20.355469 221.429688 20.214844 222.125 19.988281 L 222.769531 19.773438 C 222.800781 19.773438 222.820312 19.785156 222.828125 19.808594 C 222.832031 19.832031 222.835938 19.863281 222.835938 19.902344 L 222.835938 20.910156 C 223.253906 20.519531 223.585938 20.25 223.820312 20.101562 C 224.175781 19.878906 224.546875 19.769531 224.929688 19.769531 C 225.238281 19.769531 225.519531 19.855469 225.777344 20.035156 C 226.269531 20.378906 226.511719 20.996094 226.511719 21.886719 L 226.511719 25.074219 C 226.511719 25.402344 226.578125 25.640625 226.710938 25.785156 C 226.84375 25.929688 227.0625 26.007812 227.371094 26.011719 L 227.371094 26.203125 L 224.457031 26.203125 L 224.457031 26.011719 C 224.789062 25.964844 225.023438 25.875 225.152344 25.734375 C 225.285156 25.59375 225.351562 25.292969 225.351562 24.832031 L 225.351562 21.914062 C 225.351562 21.523438 225.28125 21.199219 225.132812 20.941406 C 224.988281 20.683594 224.71875 20.554688 224.328125 20.554688 C 224.058594 20.554688 223.785156 20.644531 223.507812 20.828125 C 223.351562 20.933594 223.152344 21.105469 222.90625 21.347656 L 222.90625 25.171875 C 222.90625 25.5 222.976562 25.71875 223.125 25.832031 C 223.269531 25.941406 223.5 26.003906 223.816406 26.011719 L 223.816406 26.203125 L 220.828125 26.203125 Z M 231.050781 19.761719 C 231.621094 19.761719 232.109375 19.90625 232.523438 20.203125 C 232.9375 20.496094 233.140625 20.816406 233.140625 21.167969 C 233.140625 21.320312 233.089844 21.460938 232.984375 21.589844 C 232.878906 21.71875 232.71875 21.785156 232.5 21.785156 C 232.339844 21.785156 232.199219 21.730469 232.078125 21.621094 C 231.957031 21.511719 231.871094 21.351562 231.816406 21.140625 L 231.734375 20.8125 C 231.675781 20.570312 231.570312 20.402344 231.425781 20.300781 C 231.273438 20.207031 231.078125 20.15625 230.832031 20.15625 C 230.3125 20.15625 229.871094 20.382812 229.515625 20.835938 C 229.15625 21.289062 228.976562 21.894531 228.976562 22.644531 C 228.976562 23.332031 229.175781 23.949219 229.570312 24.496094 C 229.964844 25.039062 230.496094 25.3125 231.164062 25.3125 C 231.640625 25.3125 232.0625 25.160156 232.429688 24.855469 C 232.640625 24.675781 232.878906 24.394531 233.140625 24.003906 L 233.332031 24.121094 C 233.074219 24.667969 232.800781 25.097656 232.511719 25.417969 C 231.960938 26.027344 231.324219 26.332031 230.597656 26.332031 C 229.886719 26.332031 229.257812 26.054688 228.710938 25.492188 C 228.164062 24.933594 227.890625 24.175781 227.890625 23.214844 C 227.890625 22.269531 228.191406 21.457031 228.789062 20.777344 C 229.382812 20.097656 230.136719 19.761719 231.050781 19.761719 Z M 236.992188 19.792969 C 237.632812 19.792969 238.195312 20.015625 238.679688 20.460938 C 239.164062 20.90625 239.402344 21.535156 239.402344 22.351562 L 235.0625 22.351562 C 235.109375 23.410156 235.347656 24.179688 235.78125 24.660156 C 236.214844 25.140625 236.726562 25.382812 237.320312 25.382812 C 237.796875 25.382812 238.199219 25.257812 238.527344 25.007812 C 238.855469 24.761719 239.160156 24.40625 239.4375 23.945312 L 239.675781 24.027344 C 239.488281 24.605469 239.140625 25.136719 238.628906 25.628906 C 238.117188 26.121094 237.488281 26.367188 236.746094 26.367188 C 235.886719 26.367188 235.226562 26.042969 234.757812 25.398438 C 234.292969 24.753906 234.058594 24.007812 234.058594 23.164062 C 234.058594 22.25 234.328125 21.457031 234.871094 20.792969 C 235.414062 20.128906 236.121094 19.792969 236.992188 19.792969 Z M 236.59375 20.292969 C 236.074219 20.292969 235.679688 20.523438 235.40625 20.984375 C 235.261719 21.230469 235.15625 21.539062 235.089844 21.914062 L 237.976562 21.914062 C 237.925781 21.457031 237.839844 21.117188 237.714844 20.894531 C 237.492188 20.496094 237.117188 20.292969 236.59375 20.292969 Z M 177.050781 15.707031 "/>
<path style="fill:none;stroke-width:1;stroke-linecap:butt;stroke-linejoin:miter;stroke:rgb(0%,0%,0%);stroke-opacity:1;stroke-miterlimit:4;" d="M 196.207687 -64.89348 C 193.414164 -58.837592 190.229939 -51.941692 187.182459 -45.342727 " transform="matrix(0.999802,0,0,0.999802,3.999206,104.989982)"/>
<path style="fill-rule:nonzero;fill:rgb(0%,0%,0%);fill-opacity:1;stroke-width:1;stroke-linecap:butt;stroke-linejoin:miter;stroke:rgb(0%,0%,0%);stroke-opacity:1;stroke-miterlimit:4;" d="M 190.245567 -43.623636 L 182.876917 -36.008844 L 183.888837 -46.553905 Z M 190.245567 -43.623636 " transform="matrix(0.999802,0,0,0.999802,3.999206,104.989982)"/>
</g>
</svg>
