<?xml version="1.0" encoding="UTF-8"?>
<svg xmlns="http://www.w3.org/2000/svg" xmlns:xlink="http://www.w3.org/1999/xlink" width="304pt" height="109pt" viewBox="0 0 304 109" version="1.1">
<g id="surface23">
<path style=" stroke:none;fill-rule:nonzero;fill:rgb(100%,100%,100%);fill-opacity:1;" d="M 0 108.914062 L 0 0.0859375 L 304 0.0859375 L 304 108.914062 Z M 0 108.914062 "/>
<path style=" stroke:none;fill-rule:nonzero;fill:rgb(0%,0%,0%);fill-opacity:1;" d="M 26.777344 90.984375 L 32.910156 82.425781 L 29.6875 82.425781 C 28.875 82.425781 28.304688 82.628906 27.960938 83.03125 C 27.757812 83.273438 27.59375 83.691406 27.476562 84.28125 L 27.113281 84.28125 L 27.394531 81.894531 L 34.773438 81.894531 L 34.773438 82.050781 L 28.703125 90.609375 L 32.292969 90.609375 C 33.109375 90.609375 33.703125 90.414062 34.074219 90.03125 C 34.308594 89.785156 34.515625 89.335938 34.703125 88.683594 L 35.03125 88.683594 L 34.691406 91.140625 L 26.777344 91.140625 Z M 26.683594 80.65625 "/>
<path style=" stroke:none;fill-rule:nonzero;fill:rgb(0%,0%,0%);fill-opacity:1;" d="M 101.617188 90.886719 C 102.132812 90.832031 102.46875 90.742188 102.621094 90.609375 C 102.769531 90.480469 102.84375 90.15625 102.84375 89.628906 L 102.84375 83.40625 C 102.84375 82.914062 102.769531 82.589844 102.625 82.4375 C 102.472656 82.285156 102.136719 82.191406 101.617188 82.152344 L 101.617188 81.894531 L 109.042969 81.894531 L 109.089844 83.898438 L 108.738281 83.898438 C 108.617188 83.277344 108.441406 82.882812 108.203125 82.699219 C 107.964844 82.515625 107.441406 82.425781 106.621094 82.425781 L 104.722656 82.425781 C 104.519531 82.425781 104.394531 82.460938 104.34375 82.527344 C 104.296875 82.59375 104.273438 82.714844 104.273438 82.898438 L 104.273438 86.015625 L 106.421875 86.015625 C 107.019531 86.015625 107.398438 85.925781 107.5625 85.75 C 107.722656 85.570312 107.855469 85.214844 107.957031 84.671875 L 108.285156 84.671875 L 108.285156 87.902344 L 107.957031 87.902344 C 107.851562 87.367188 107.71875 87.007812 107.558594 86.832031 C 107.394531 86.65625 107.015625 86.570312 106.421875 86.570312 L 104.273438 86.570312 L 104.273438 90.03125 C 104.273438 90.308594 104.359375 90.46875 104.535156 90.519531 C 104.710938 90.570312 105.234375 90.59375 106.109375 90.59375 C 107.054688 90.59375 107.753906 90.488281 108.203125 90.285156 C 108.652344 90.078125 109.058594 89.578125 109.417969 88.777344 L 109.808594 88.777344 L 109.175781 91.140625 L 101.617188 91.140625 Z M 113.308594 84.691406 C 113.640625 84.691406 113.945312 84.765625 114.222656 84.910156 C 114.40625 85.007812 114.582031 85.140625 114.75 85.308594 L 114.75 83.132812 C 114.75 82.859375 114.71875 82.667969 114.65625 82.5625 C 114.59375 82.457031 114.449219 82.40625 114.21875 82.40625 C 114.164062 82.40625 114.113281 82.410156 114.074219 82.414062 C 114.03125 82.417969 113.941406 82.425781 113.800781 82.441406 L 113.800781 82.214844 L 114.359375 82.070312 C 114.566406 82.015625 114.769531 81.960938 114.976562 81.898438 C 115.175781 81.839844 115.355469 81.785156 115.511719 81.730469 C 115.585938 81.707031 115.707031 81.664062 115.875 81.601562 L 115.914062 81.613281 L 115.902344 82.332031 C 115.898438 82.589844 115.890625 82.859375 115.886719 83.128906 C 115.882812 83.40625 115.878906 83.679688 115.878906 83.949219 L 115.867188 89.523438 C 115.867188 89.820312 115.902344 90.027344 115.976562 90.144531 C 116.050781 90.265625 116.242188 90.324219 116.558594 90.324219 C 116.609375 90.324219 116.65625 90.324219 116.707031 90.320312 C 116.757812 90.316406 116.808594 90.3125 116.859375 90.304688 L 116.859375 90.523438 C 116.832031 90.535156 116.5 90.648438 115.867188 90.867188 L 114.796875 91.269531 L 114.75 91.210938 L 114.75 90.371094 C 114.496094 90.644531 114.273438 90.84375 114.085938 90.960938 C 113.753906 91.167969 113.367188 91.269531 112.929688 91.269531 C 112.160156 91.269531 111.53125 90.972656 111.050781 90.371094 C 110.570312 89.777344 110.332031 89.082031 110.332031 88.292969 C 110.332031 87.308594 110.621094 86.460938 111.195312 85.75 C 111.773438 85.046875 112.476562 84.691406 113.308594 84.691406 Z M 113.5625 90.53125 C 113.917969 90.53125 114.203125 90.425781 114.421875 90.222656 C 114.640625 90.011719 114.75 89.8125 114.75 89.628906 L 114.75 86.699219 C 114.75 86.105469 114.589844 85.6875 114.273438 85.445312 C 113.957031 85.203125 113.648438 85.082031 113.347656 85.082031 C 112.773438 85.082031 112.332031 85.335938 112.011719 85.839844 C 111.691406 86.347656 111.535156 86.972656 111.535156 87.71875 C 111.535156 88.449219 111.703125 89.101562 112.042969 89.675781 C 112.382812 90.25 112.886719 90.53125 113.5625 90.53125 Z M 119.152344 84.824219 L 119.152344 89.191406 C 119.152344 89.5 119.195312 89.746094 119.28125 89.933594 C 119.449219 90.28125 119.757812 90.449219 120.207031 90.449219 C 120.515625 90.449219 120.820312 90.351562 121.117188 90.144531 C 121.285156 90.03125 121.457031 89.875 121.628906 89.675781 L 121.628906 85.933594 C 121.628906 85.582031 121.558594 85.355469 121.425781 85.246094 C 121.289062 85.136719 121.011719 85.070312 120.605469 85.046875 L 120.605469 84.824219 L 122.808594 84.824219 L 122.808594 89.628906 C 122.808594 89.9375 122.863281 90.148438 122.976562 90.265625 C 123.085938 90.378906 123.324219 90.429688 123.683594 90.414062 L 123.683594 90.609375 C 123.433594 90.675781 123.246094 90.726562 123.128906 90.761719 C 123.011719 90.796875 122.8125 90.859375 122.535156 90.949219 C 122.417969 90.992188 122.160156 91.089844 121.757812 91.242188 C 121.734375 91.242188 121.722656 91.234375 121.71875 91.210938 C 121.714844 91.191406 121.710938 91.167969 121.710938 91.140625 L 121.710938 90.042969 C 121.402344 90.410156 121.117188 90.683594 120.863281 90.859375 C 120.476562 91.132812 120.066406 91.269531 119.636719 91.269531 C 119.242188 91.269531 118.867188 91.128906 118.515625 90.847656 C 118.160156 90.570312 117.984375 90.105469 117.984375 89.449219 L 117.984375 85.90625 C 117.984375 85.539062 117.90625 85.300781 117.75 85.175781 C 117.648438 85.097656 117.441406 85.046875 117.113281 85.011719 L 117.113281 84.824219 Z M 127.449219 84.707031 C 128.019531 84.707031 128.507812 84.851562 128.921875 85.148438 C 129.335938 85.4375 129.539062 85.757812 129.539062 86.109375 C 129.539062 86.261719 129.488281 86.402344 129.382812 86.53125 C 129.277344 86.660156 129.117188 86.726562 128.898438 86.726562 C 128.738281 86.726562 128.597656 86.671875 128.476562 86.5625 C 128.355469 86.453125 128.269531 86.292969 128.214844 86.082031 L 128.132812 85.753906 C 128.074219 85.511719 127.96875 85.347656 127.824219 85.246094 C 127.671875 85.152344 127.476562 85.101562 127.234375 85.101562 C 126.714844 85.101562 126.273438 85.328125 125.917969 85.777344 C 125.558594 86.230469 125.378906 86.835938 125.378906 87.585938 C 125.378906 88.269531 125.578125 88.886719 125.972656 89.433594 C 126.367188 89.980469 126.898438 90.253906 127.5625 90.253906 C 128.039062 90.253906 128.460938 90.101562 128.828125 89.792969 C 129.039062 89.613281 129.277344 89.332031 129.539062 88.941406 L 129.730469 89.058594 C 129.472656 89.605469 129.199219 90.039062 128.910156 90.359375 C 128.359375 90.964844 127.722656 91.269531 127 91.269531 C 126.289062 91.269531 125.660156 90.992188 125.113281 90.429688 C 124.570312 89.871094 124.296875 89.113281 124.296875 88.152344 C 124.296875 87.210938 124.597656 86.398438 125.191406 85.71875 C 125.785156 85.042969 126.539062 84.707031 127.449219 84.707031 Z M 134.1875 87.359375 C 133.664062 87.535156 133.230469 87.726562 132.890625 87.933594 C 132.238281 88.339844 131.910156 88.796875 131.910156 89.3125 C 131.910156 89.726562 132.046875 90.03125 132.320312 90.230469 C 132.492188 90.355469 132.691406 90.414062 132.910156 90.414062 C 133.210938 90.414062 133.5 90.335938 133.773438 90.167969 C 134.050781 90 134.1875 89.785156 134.1875 89.523438 Z M 130.691406 89.785156 C 130.691406 89.125 131.023438 88.570312 131.683594 88.128906 C 132.101562 87.859375 132.933594 87.488281 134.1875 87.019531 L 134.1875 86.4375 C 134.1875 85.972656 134.144531 85.648438 134.050781 85.46875 C 133.894531 85.167969 133.574219 85.011719 133.089844 85.011719 C 132.855469 85.011719 132.632812 85.074219 132.425781 85.191406 C 132.21875 85.316406 132.113281 85.480469 132.113281 85.695312 C 132.113281 85.75 132.125 85.839844 132.148438 85.96875 C 132.171875 86.101562 132.183594 86.183594 132.183594 86.21875 C 132.183594 86.476562 132.097656 86.652344 131.929688 86.753906 C 131.835938 86.8125 131.71875 86.84375 131.585938 86.84375 C 131.382812 86.84375 131.226562 86.773438 131.117188 86.640625 C 131.007812 86.507812 130.953125 86.355469 130.953125 86.191406 C 130.953125 85.875 131.148438 85.539062 131.542969 85.195312 C 131.9375 84.847656 132.511719 84.671875 133.273438 84.671875 C 134.15625 84.671875 134.753906 84.957031 135.066406 85.53125 C 135.234375 85.84375 135.320312 86.300781 135.320312 86.902344 L 135.320312 89.640625 C 135.320312 89.90625 135.335938 90.085938 135.375 90.1875 C 135.433594 90.363281 135.554688 90.449219 135.742188 90.449219 C 135.847656 90.449219 135.933594 90.433594 136.003906 90.402344 C 136.070312 90.371094 136.191406 90.296875 136.359375 90.175781 L 136.359375 90.523438 C 136.210938 90.703125 136.054688 90.847656 135.886719 90.960938 C 135.632812 91.136719 135.371094 91.222656 135.109375 91.222656 C 134.800781 91.222656 134.578125 91.121094 134.4375 90.921875 C 134.300781 90.722656 134.222656 90.480469 134.207031 90.207031 C 133.863281 90.503906 133.566406 90.726562 133.320312 90.875 C 132.90625 91.121094 132.511719 91.242188 132.140625 91.242188 C 131.75 91.242188 131.410156 91.105469 131.125 90.828125 C 130.835938 90.554688 130.691406 90.207031 130.691406 89.785156 Z M 139.941406 84.847656 L 139.941406 85.339844 L 138.550781 85.339844 L 138.535156 89.269531 C 138.535156 89.617188 138.566406 89.878906 138.625 90.058594 C 138.734375 90.371094 138.949219 90.523438 139.265625 90.523438 C 139.429688 90.523438 139.574219 90.488281 139.695312 90.410156 C 139.8125 90.335938 139.949219 90.210938 140.105469 90.042969 L 140.28125 90.195312 L 140.132812 90.394531 C 139.894531 90.714844 139.648438 90.941406 139.382812 91.070312 C 139.117188 91.203125 138.863281 91.269531 138.617188 91.269531 C 138.078125 91.269531 137.714844 91.03125 137.523438 90.554688 C 137.417969 90.296875 137.367188 89.9375 137.367188 89.476562 L 137.367188 85.339844 L 136.625 85.339844 C 136.601562 85.328125 136.585938 85.316406 136.574219 85.300781 C 136.5625 85.285156 136.558594 85.269531 136.558594 85.246094 C 136.558594 85.199219 136.566406 85.164062 136.589844 85.140625 C 136.609375 85.113281 136.675781 85.058594 136.785156 84.964844 C 137.097656 84.707031 137.320312 84.496094 137.460938 84.332031 C 137.597656 84.171875 137.925781 83.746094 138.441406 83.050781 C 138.5 83.050781 138.535156 83.054688 138.546875 83.066406 C 138.558594 83.074219 138.5625 83.109375 138.5625 83.167969 L 138.5625 84.847656 Z M 141.417969 82.332031 C 141.417969 82.136719 141.488281 81.964844 141.621094 81.824219 C 141.757812 81.683594 141.929688 81.613281 142.128906 81.613281 C 142.320312 81.613281 142.488281 81.683594 142.628906 81.820312 C 142.765625 81.960938 142.835938 82.128906 142.835938 82.332031 C 142.835938 82.527344 142.765625 82.695312 142.628906 82.832031 C 142.488281 82.96875 142.320312 83.039062 142.128906 83.039062 C 141.929688 83.039062 141.761719 82.96875 141.621094 82.832031 C 141.484375 82.695312 141.417969 82.527344 141.417969 82.332031 Z M 140.542969 90.949219 C 141.03125 90.902344 141.339844 90.820312 141.464844 90.699219 C 141.59375 90.578125 141.65625 90.253906 141.65625 89.722656 L 141.65625 86.464844 C 141.65625 86.167969 141.636719 85.964844 141.597656 85.851562 C 141.527344 85.664062 141.382812 85.570312 141.164062 85.570312 C 141.113281 85.570312 141.066406 85.574219 141.019531 85.585938 C 140.972656 85.59375 140.832031 85.628906 140.605469 85.695312 L 140.605469 85.480469 L 140.898438 85.390625 C 141.695312 85.128906 142.25 84.933594 142.5625 84.800781 C 142.691406 84.746094 142.773438 84.71875 142.808594 84.71875 C 142.816406 84.75 142.820312 84.785156 142.820312 84.824219 L 142.820312 89.722656 C 142.820312 90.242188 142.886719 90.5625 143.011719 90.695312 C 143.136719 90.828125 143.417969 90.914062 143.859375 90.949219 L 143.859375 91.140625 L 140.542969 91.140625 Z M 144.507812 87.972656 C 144.507812 87.070312 144.792969 86.304688 145.367188 85.675781 C 145.945312 85.054688 146.6875 84.738281 147.589844 84.738281 C 148.492188 84.738281 149.238281 85.035156 149.828125 85.625 C 150.421875 86.21875 150.71875 87.007812 150.71875 87.988281 C 150.71875 88.894531 150.429688 89.683594 149.855469 90.351562 C 149.285156 91.015625 148.542969 91.351562 147.628906 91.351562 C 146.757812 91.351562 146.019531 91.03125 145.414062 90.390625 C 144.808594 89.75 144.507812 88.941406 144.507812 87.972656 Z M 147.398438 85.152344 C 147.042969 85.152344 146.730469 85.269531 146.464844 85.5 C 146.007812 85.914062 145.78125 86.632812 145.78125 87.648438 C 145.78125 88.457031 145.964844 89.210938 146.332031 89.914062 C 146.699219 90.613281 147.203125 90.960938 147.855469 90.960938 C 148.367188 90.960938 148.761719 90.726562 149.035156 90.261719 C 149.3125 89.792969 149.449219 89.179688 149.449219 88.417969 C 149.449219 87.632812 149.273438 86.890625 148.921875 86.191406 C 148.570312 85.496094 148.0625 85.152344 147.398438 85.152344 Z M 151.394531 90.949219 C 151.71875 90.90625 151.945312 90.828125 152.074219 90.707031 C 152.199219 90.585938 152.265625 90.320312 152.265625 89.902344 L 152.265625 86.4375 C 152.265625 86.148438 152.238281 85.941406 152.183594 85.824219 C 152.101562 85.648438 151.921875 85.5625 151.652344 85.5625 C 151.613281 85.5625 151.570312 85.566406 151.527344 85.570312 C 151.484375 85.574219 151.429688 85.582031 151.367188 85.589844 L 151.367188 85.355469 C 151.554688 85.300781 151.996094 85.160156 152.6875 84.933594 L 153.332031 84.71875 C 153.363281 84.71875 153.382812 84.730469 153.390625 84.753906 C 153.394531 84.777344 153.398438 84.808594 153.398438 84.847656 L 153.398438 85.851562 C 153.816406 85.460938 154.148438 85.195312 154.382812 85.046875 C 154.734375 84.824219 155.105469 84.714844 155.488281 84.714844 C 155.796875 84.714844 156.078125 84.800781 156.335938 84.980469 C 156.828125 85.324219 157.074219 85.9375 157.074219 86.828125 L 157.074219 90.015625 C 157.074219 90.34375 157.136719 90.578125 157.269531 90.722656 C 157.402344 90.867188 157.621094 90.945312 157.929688 90.949219 L 157.929688 91.140625 L 155.015625 91.140625 L 155.015625 90.949219 C 155.347656 90.902344 155.582031 90.8125 155.710938 90.671875 C 155.84375 90.53125 155.910156 90.234375 155.910156 89.769531 L 155.910156 86.855469 C 155.910156 86.464844 155.839844 86.140625 155.691406 85.882812 C 155.546875 85.625 155.277344 85.496094 154.886719 85.496094 C 154.617188 85.496094 154.347656 85.585938 154.070312 85.769531 C 153.914062 85.875 153.714844 86.046875 153.46875 86.289062 L 153.46875 90.113281 C 153.46875 90.4375 153.539062 90.65625 153.6875 90.769531 C 153.832031 90.878906 154.0625 90.941406 154.378906 90.949219 L 154.378906 91.140625 L 151.394531 91.140625 Z M 101.460938 80.65625 "/>
<path style="fill:none;stroke-width:1;stroke-linecap:butt;stroke-linejoin:miter;stroke:rgb(0%,0%,0%);stroke-opacity:1;stroke-miterlimit:4;" d="M 54.072019 -17.999544 C 62.460243 -17.999544 70.848467 -17.999544 79.240603 -17.999544 " transform="matrix(0.998424,0,0,0.998424,3.993694,104.920387)"/>
<path style="fill-rule:nonzero;fill:rgb(0%,0%,0%);fill-opacity:1;stroke-width:1;stroke-linecap:butt;stroke-linejoin:miter;stroke:rgb(0%,0%,0%);stroke-opacity:1;stroke-miterlimit:4;" d="M 79.471436 -21.501158 L 89.471576 -17.999544 L 79.471436 -14.501843 Z M 79.471436 -21.501158 " transform="matrix(0.998424,0,0,0.998424,3.993694,104.920387)"/>
<path style=" stroke:none;fill-rule:nonzero;fill:rgb(0%,0%,0%);fill-opacity:1;" d="M 209.90625 90.886719 C 210.476562 90.847656 210.84375 90.761719 211.011719 90.632812 C 211.179688 90.5 211.265625 90.167969 211.265625 89.628906 L 211.265625 83.40625 C 211.265625 82.894531 211.179688 82.566406 211.011719 82.417969 C 210.84375 82.269531 210.476562 82.179688 209.90625 82.152344 L 209.90625 81.894531 L 214.039062 81.894531 L 214.039062 82.152344 C 213.472656 82.179688 213.105469 82.269531 212.9375 82.417969 C 212.769531 82.566406 212.683594 82.894531 212.683594 83.40625 L 212.683594 89.628906 C 212.683594 90.167969 212.769531 90.5 212.9375 90.632812 C 213.105469 90.761719 213.472656 90.847656 214.039062 90.886719 L 214.039062 91.140625 L 209.90625 91.140625 Z M 214.585938 90.949219 C 214.910156 90.90625 215.136719 90.828125 215.265625 90.707031 C 215.394531 90.585938 215.460938 90.320312 215.460938 89.902344 L 215.460938 86.4375 C 215.460938 86.148438 215.433594 85.941406 215.378906 85.824219 C 215.292969 85.648438 215.113281 85.5625 214.84375 85.5625 C 214.804688 85.5625 214.761719 85.566406 214.71875 85.570312 C 214.675781 85.574219 214.621094 85.582031 214.558594 85.589844 L 214.558594 85.355469 C 214.746094 85.300781 215.1875 85.160156 215.882812 84.933594 L 216.523438 84.71875 C 216.554688 84.71875 216.574219 84.730469 216.582031 84.753906 C 216.585938 84.777344 216.589844 84.808594 216.589844 84.847656 L 216.589844 85.851562 C 217.007812 85.460938 217.339844 85.195312 217.574219 85.046875 C 217.929688 84.824219 218.300781 84.714844 218.683594 84.714844 C 218.988281 84.714844 219.269531 84.800781 219.527344 84.980469 C 220.019531 85.324219 220.265625 85.9375 220.265625 86.828125 L 220.265625 90.015625 C 220.265625 90.34375 220.332031 90.578125 220.464844 90.722656 C 220.597656 90.867188 220.816406 90.945312 221.125 90.949219 L 221.125 91.140625 L 218.210938 91.140625 L 218.210938 90.949219 C 218.542969 90.902344 218.777344 90.8125 218.90625 90.671875 C 219.035156 90.53125 219.101562 90.234375 219.101562 89.769531 L 219.101562 86.855469 C 219.101562 86.464844 219.03125 86.140625 218.886719 85.882812 C 218.742188 85.625 218.472656 85.496094 218.082031 85.496094 C 217.8125 85.496094 217.539062 85.585938 217.261719 85.769531 C 217.105469 85.875 216.90625 86.046875 216.660156 86.289062 L 216.660156 90.113281 C 216.660156 90.4375 216.730469 90.65625 216.878906 90.769531 C 217.023438 90.878906 217.253906 90.941406 217.570312 90.949219 L 217.570312 91.140625 L 214.585938 91.140625 Z M 224.796875 84.707031 C 225.367188 84.707031 225.855469 84.851562 226.269531 85.148438 C 226.679688 85.4375 226.882812 85.757812 226.882812 86.109375 C 226.882812 86.261719 226.832031 86.402344 226.726562 86.53125 C 226.621094 86.660156 226.460938 86.726562 226.246094 86.726562 C 226.085938 86.726562 225.945312 86.671875 225.824219 86.5625 C 225.703125 86.453125 225.617188 86.292969 225.5625 86.082031 L 225.480469 85.753906 C 225.421875 85.511719 225.316406 85.347656 225.171875 85.246094 C 225.019531 85.152344 224.824219 85.101562 224.578125 85.101562 C 224.058594 85.101562 223.621094 85.328125 223.265625 85.777344 C 222.90625 86.230469 222.726562 86.835938 222.726562 87.585938 C 222.726562 88.269531 222.925781 88.886719 223.320312 89.433594 C 223.714844 89.980469 224.242188 90.253906 224.910156 90.253906 C 225.386719 90.253906 225.808594 90.101562 226.175781 89.792969 C 226.382812 89.613281 226.621094 89.332031 226.882812 88.941406 L 227.074219 89.058594 C 226.816406 89.605469 226.542969 90.039062 226.257812 90.359375 C 225.707031 90.964844 225.070312 91.269531 224.34375 91.269531 C 223.636719 91.269531 223.007812 90.992188 222.460938 90.429688 C 221.914062 89.871094 221.640625 89.113281 221.640625 88.152344 C 221.640625 87.210938 221.941406 86.398438 222.539062 85.71875 C 223.132812 85.042969 223.886719 84.707031 224.796875 84.707031 Z M 227.882812 87.972656 C 227.882812 87.070312 228.171875 86.304688 228.746094 85.675781 C 229.320312 85.054688 230.0625 84.738281 230.96875 84.738281 C 231.867188 84.738281 232.613281 85.035156 233.207031 85.625 C 233.796875 86.21875 234.09375 87.007812 234.09375 87.988281 C 234.09375 88.894531 233.804688 89.683594 233.234375 90.351562 C 232.660156 91.015625 231.917969 91.351562 231.007812 91.351562 C 230.132812 91.351562 229.394531 91.03125 228.792969 90.390625 C 228.1875 89.75 227.882812 88.941406 227.882812 87.972656 Z M 230.777344 85.152344 C 230.417969 85.152344 230.105469 85.269531 229.839844 85.5 C 229.382812 85.914062 229.15625 86.632812 229.15625 87.648438 C 229.15625 88.457031 229.339844 89.210938 229.707031 89.914062 C 230.074219 90.613281 230.582031 90.960938 231.234375 90.960938 C 231.742188 90.960938 232.136719 90.726562 232.410156 90.261719 C 232.6875 89.792969 232.824219 89.179688 232.824219 88.417969 C 232.824219 87.632812 232.648438 86.890625 232.296875 86.191406 C 231.945312 85.496094 231.4375 85.152344 230.777344 85.152344 Z M 234.742188 90.960938 C 235.097656 90.929688 235.332031 90.871094 235.453125 90.785156 C 235.632812 90.652344 235.726562 90.390625 235.726562 89.996094 L 235.726562 86.464844 C 235.726562 86.128906 235.679688 85.90625 235.59375 85.804688 C 235.503906 85.699219 235.355469 85.644531 235.152344 85.644531 C 235.054688 85.644531 234.984375 85.648438 234.9375 85.660156 C 234.890625 85.667969 234.832031 85.683594 234.769531 85.707031 L 234.769531 85.46875 L 235.261719 85.308594 C 235.4375 85.25 235.730469 85.140625 236.136719 84.988281 C 236.539062 84.832031 236.75 84.753906 236.773438 84.753906 C 236.796875 84.753906 236.8125 84.765625 236.816406 84.789062 C 236.820312 84.8125 236.824219 84.855469 236.824219 84.917969 L 236.824219 85.835938 C 237.273438 85.425781 237.664062 85.148438 237.992188 84.988281 C 238.320312 84.832031 238.65625 84.753906 239 84.753906 C 239.46875 84.753906 239.84375 84.914062 240.121094 85.230469 C 240.265625 85.40625 240.386719 85.636719 240.484375 85.933594 C 240.820312 85.589844 241.113281 85.339844 241.359375 85.175781 C 241.792969 84.894531 242.234375 84.753906 242.6875 84.753906 C 243.421875 84.753906 243.90625 85.050781 244.152344 85.644531 C 244.292969 85.984375 244.363281 86.515625 244.363281 87.246094 L 244.363281 90.078125 C 244.363281 90.398438 244.4375 90.617188 244.578125 90.734375 C 244.722656 90.851562 244.980469 90.925781 245.355469 90.960938 L 245.355469 91.140625 L 242.277344 91.140625 L 242.277344 90.949219 C 242.671875 90.914062 242.933594 90.832031 243.058594 90.710938 C 243.183594 90.585938 243.246094 90.339844 243.246094 89.960938 L 243.246094 87.019531 C 243.246094 86.578125 243.199219 86.25 243.105469 86.042969 C 242.933594 85.667969 242.605469 85.480469 242.113281 85.480469 C 241.816406 85.480469 241.523438 85.578125 241.230469 85.773438 C 241.066406 85.890625 240.859375 86.070312 240.613281 86.320312 L 240.613281 89.816406 C 240.613281 90.1875 240.675781 90.464844 240.808594 90.65625 C 240.9375 90.847656 241.207031 90.949219 241.628906 90.960938 L 241.628906 91.140625 L 238.496094 91.140625 L 238.496094 90.960938 C 238.925781 90.90625 239.203125 90.804688 239.320312 90.648438 C 239.4375 90.492188 239.5 90.117188 239.5 89.511719 L 239.5 87.601562 C 239.5 86.898438 239.453125 86.414062 239.359375 86.152344 C 239.210938 85.703125 238.890625 85.480469 238.410156 85.480469 C 238.128906 85.480469 237.855469 85.558594 237.589844 85.710938 C 237.320312 85.863281 237.082031 86.0625 236.878906 86.308594 L 236.878906 90.042969 C 236.878906 90.386719 236.9375 90.625 237.058594 90.757812 C 237.179688 90.890625 237.441406 90.957031 237.847656 90.960938 L 237.847656 91.140625 L 234.742188 91.140625 Z M 248.59375 84.738281 C 249.230469 84.738281 249.792969 84.960938 250.277344 85.40625 C 250.761719 85.847656 251 86.476562 251 87.292969 L 246.664062 87.292969 C 246.710938 88.347656 246.949219 89.117188 247.382812 89.597656 C 247.816406 90.082031 248.328125 90.324219 248.917969 90.324219 C 249.394531 90.324219 249.796875 90.199219 250.125 89.949219 C 250.453125 89.699219 250.757812 89.34375 251.035156 88.882812 L 251.269531 88.964844 C 251.085938 89.542969 250.738281 90.078125 250.226562 90.566406 C 249.714844 91.058594 249.085938 91.304688 248.347656 91.304688 C 247.488281 91.304688 246.828125 90.980469 246.359375 90.339844 C 245.898438 89.691406 245.664062 88.945312 245.664062 88.101562 C 245.664062 87.191406 245.933594 86.398438 246.472656 85.734375 C 247.015625 85.074219 247.722656 84.738281 248.59375 84.738281 Z M 248.195312 85.238281 C 247.675781 85.238281 247.28125 85.464844 247.007812 85.925781 C 246.863281 86.171875 246.757812 86.480469 246.691406 86.855469 L 249.574219 86.855469 C 249.523438 86.398438 249.4375 86.058594 249.3125 85.835938 C 249.089844 85.4375 248.714844 85.238281 248.195312 85.238281 Z M 209.679688 80.65625 "/>
<path style="fill:none;stroke-width:1;stroke-linecap:butt;stroke-linejoin:miter;stroke:rgb(0%,0%,0%);stroke-opacity:1;stroke-miterlimit:4;" d="M 162.297323 -17.999544 C 170.834219 -17.999544 179.375027 -17.999544 187.911923 -17.999544 " transform="matrix(0.998424,0,0,0.998424,3.993694,104.920387)"/>
<path style="fill-rule:nonzero;fill:rgb(0%,0%,0%);fill-opacity:1;stroke-width:1;stroke-linecap:butt;stroke-linejoin:miter;stroke:rgb(0%,0%,0%);stroke-opacity:1;stroke-miterlimit:4;" d="M 187.935398 -21.501158 L 197.935538 -17.999544 L 187.935398 -14.501843 Z M 187.935398 -21.501158 " transform="matrix(0.998424,0,0,0.998424,3.993694,104.920387)"/>
<path style=" stroke:none;fill-rule:nonzero;fill:rgb(0%,0%,0%);fill-opacity:1;" d="M 64.484375 25.992188 C 65 25.9375 65.335938 25.847656 65.488281 25.714844 C 65.636719 25.585938 65.710938 25.257812 65.710938 24.730469 L 65.710938 18.511719 C 65.710938 18.015625 65.636719 17.691406 65.492188 17.539062 C 65.339844 17.386719 65.003906 17.292969 64.484375 17.253906 L 64.484375 16.996094 L 71.910156 16.996094 L 71.957031 19 L 71.605469 19 C 71.484375 18.382812 71.308594 17.984375 71.070312 17.800781 C 70.832031 17.617188 70.308594 17.527344 69.488281 17.527344 L 67.589844 17.527344 C 67.386719 17.527344 67.261719 17.5625 67.210938 17.628906 C 67.164062 17.695312 67.140625 17.816406 67.140625 18 L 67.140625 21.117188 L 69.289062 21.117188 C 69.886719 21.117188 70.265625 21.03125 70.429688 20.855469 C 70.589844 20.675781 70.722656 20.316406 70.824219 19.773438 L 71.152344 19.773438 L 71.152344 23.007812 L 70.824219 23.007812 C 70.71875 22.46875 70.585938 22.109375 70.425781 21.933594 C 70.261719 21.757812 69.882812 21.671875 69.289062 21.671875 L 67.140625 21.671875 L 67.140625 25.132812 C 67.140625 25.410156 67.226562 25.574219 67.402344 25.625 C 67.578125 25.675781 68.101562 25.699219 68.976562 25.699219 C 69.921875 25.699219 70.621094 25.59375 71.070312 25.386719 C 71.519531 25.179688 71.925781 24.679688 72.285156 23.878906 L 72.675781 23.878906 L 72.042969 26.242188 L 64.484375 26.242188 Z M 72.929688 26.019531 C 73.34375 25.984375 73.621094 25.910156 73.757812 25.796875 C 73.894531 25.6875 73.964844 25.449219 73.964844 25.082031 L 73.964844 22.003906 C 73.964844 21.554688 73.921875 21.230469 73.835938 21.042969 C 73.753906 20.847656 73.597656 20.75 73.375 20.75 C 73.332031 20.75 73.269531 20.757812 73.195312 20.769531 C 73.121094 20.78125 73.042969 20.792969 72.960938 20.8125 L 72.960938 20.585938 C 73.21875 20.496094 73.484375 20.402344 73.757812 20.308594 C 74.03125 20.210938 74.222656 20.144531 74.324219 20.101562 C 74.554688 20.015625 74.789062 19.917969 75.03125 19.808594 C 75.0625 19.808594 75.082031 19.820312 75.089844 19.839844 C 75.097656 19.863281 75.097656 19.914062 75.097656 19.984375 L 75.097656 21.101562 C 75.390625 20.699219 75.667969 20.382812 75.9375 20.15625 C 76.210938 19.929688 76.492188 19.816406 76.78125 19.816406 C 77.015625 19.816406 77.203125 19.882812 77.351562 20.023438 C 77.496094 20.160156 77.570312 20.335938 77.570312 20.546875 C 77.570312 20.734375 77.511719 20.890625 77.402344 21.019531 C 77.289062 21.140625 77.148438 21.203125 76.980469 21.203125 C 76.808594 21.203125 76.632812 21.125 76.457031 20.96875 C 76.28125 20.808594 76.144531 20.730469 76.046875 20.730469 C 75.886719 20.730469 75.6875 20.859375 75.457031 21.113281 C 75.230469 21.371094 75.113281 21.636719 75.113281 21.910156 L 75.113281 24.988281 C 75.113281 25.378906 75.203125 25.652344 75.386719 25.804688 C 75.5625 25.957031 75.867188 26.03125 76.289062 26.019531 L 76.289062 26.242188 L 72.929688 26.242188 Z M 77.585938 26.019531 C 78 25.984375 78.277344 25.910156 78.414062 25.796875 C 78.550781 25.6875 78.621094 25.449219 78.621094 25.082031 L 78.621094 22.003906 C 78.621094 21.554688 78.578125 21.230469 78.492188 21.042969 C 78.410156 20.847656 78.253906 20.75 78.03125 20.75 C 77.988281 20.75 77.929688 20.757812 77.855469 20.769531 C 77.78125 20.78125 77.703125 20.792969 77.617188 20.8125 L 77.617188 20.585938 C 77.878906 20.496094 78.140625 20.402344 78.414062 20.308594 C 78.6875 20.210938 78.878906 20.144531 78.980469 20.101562 C 79.210938 20.015625 79.445312 19.917969 79.6875 19.808594 C 79.71875 19.808594 79.738281 19.820312 79.746094 19.839844 C 79.753906 19.863281 79.753906 19.914062 79.753906 19.984375 L 79.753906 21.101562 C 80.046875 20.699219 80.328125 20.382812 80.59375 20.15625 C 80.867188 19.929688 81.148438 19.816406 81.4375 19.816406 C 81.671875 19.816406 81.859375 19.882812 82.007812 20.023438 C 82.152344 20.160156 82.226562 20.335938 82.226562 20.546875 C 82.226562 20.734375 82.167969 20.890625 82.058594 21.019531 C 81.945312 21.140625 81.804688 21.203125 81.636719 21.203125 C 81.464844 21.203125 81.289062 21.125 81.113281 20.96875 C 80.9375 20.808594 80.800781 20.730469 80.703125 20.730469 C 80.542969 20.730469 80.347656 20.859375 80.117188 21.113281 C 79.886719 21.371094 79.769531 21.636719 79.769531 21.910156 L 79.769531 24.988281 C 79.769531 25.378906 79.859375 25.652344 80.042969 25.804688 C 80.222656 25.957031 80.523438 26.03125 80.945312 26.019531 L 80.945312 26.242188 L 77.585938 26.242188 Z M 82.53125 23.078125 C 82.53125 22.171875 82.820312 21.40625 83.390625 20.78125 C 83.96875 20.15625 84.710938 19.839844 85.613281 19.839844 C 86.515625 19.839844 87.261719 20.136719 87.851562 20.730469 C 88.445312 21.320312 88.742188 22.109375 88.742188 23.09375 C 88.742188 23.996094 88.453125 24.785156 87.878906 25.453125 C 87.308594 26.117188 86.566406 26.453125 85.652344 26.453125 C 84.78125 26.453125 84.042969 26.132812 83.4375 25.496094 C 82.835938 24.851562 82.53125 24.042969 82.53125 23.078125 Z M 85.421875 20.253906 C 85.066406 20.253906 84.753906 20.371094 84.488281 20.605469 C 84.03125 21.019531 83.804688 21.734375 83.804688 22.75 C 83.804688 23.5625 83.988281 24.3125 84.355469 25.015625 C 84.722656 25.71875 85.230469 26.0625 85.878906 26.0625 C 86.390625 26.0625 86.785156 25.832031 87.058594 25.363281 C 87.335938 24.894531 87.472656 24.28125 87.472656 23.523438 C 87.472656 22.734375 87.296875 21.992188 86.945312 21.292969 C 86.59375 20.601562 86.085938 20.253906 85.421875 20.253906 Z M 89.226562 26.019531 C 89.644531 25.984375 89.921875 25.910156 90.058594 25.796875 C 90.195312 25.6875 90.265625 25.449219 90.265625 25.082031 L 90.265625 22.003906 C 90.265625 21.554688 90.222656 21.230469 90.136719 21.042969 C 90.054688 20.847656 89.898438 20.75 89.675781 20.75 C 89.632812 20.75 89.570312 20.757812 89.496094 20.769531 C 89.421875 20.78125 89.34375 20.792969 89.257812 20.8125 L 89.257812 20.585938 C 89.519531 20.496094 89.785156 20.402344 90.058594 20.308594 C 90.328125 20.210938 90.519531 20.144531 90.621094 20.101562 C 90.851562 20.015625 91.085938 19.917969 91.328125 19.808594 C 91.359375 19.808594 91.378906 19.820312 91.386719 19.839844 C 91.394531 19.863281 91.394531 19.914062 91.394531 19.984375 L 91.394531 21.101562 C 91.6875 20.699219 91.96875 20.382812 92.238281 20.15625 C 92.511719 19.929688 92.789062 19.816406 93.078125 19.816406 C 93.3125 19.816406 93.5 19.882812 93.648438 20.023438 C 93.792969 20.160156 93.867188 20.335938 93.867188 20.546875 C 93.867188 20.734375 93.808594 20.890625 93.699219 21.019531 C 93.585938 21.140625 93.445312 21.203125 93.277344 21.203125 C 93.105469 21.203125 92.929688 21.125 92.757812 20.96875 C 92.582031 20.808594 92.445312 20.730469 92.347656 20.730469 C 92.1875 20.730469 91.988281 20.859375 91.757812 21.113281 C 91.527344 21.371094 91.410156 21.636719 91.410156 21.910156 L 91.410156 24.988281 C 91.410156 25.378906 91.5 25.652344 91.683594 25.804688 C 91.863281 25.957031 92.167969 26.03125 92.589844 26.019531 L 92.589844 26.242188 L 89.226562 26.242188 Z M 97.953125 22.734375 C 97.953125 21.148438 98.429688 19.761719 99.375 18.566406 C 99.960938 17.832031 100.644531 17.242188 101.4375 16.796875 L 101.566406 17.023438 C 100.832031 17.605469 100.308594 18.171875 100 18.722656 C 99.449219 19.683594 99.171875 20.964844 99.171875 22.558594 C 99.171875 23.738281 99.277344 24.71875 99.484375 25.488281 C 99.855469 26.832031 100.546875 27.84375 101.566406 28.511719 L 101.390625 28.734375 C 100.828125 28.46875 100.222656 27.941406 99.574219 27.15625 C 98.496094 25.863281 97.953125 24.386719 97.953125 22.734375 Z M 108.207031 22.65625 L 106.589844 18.800781 L 104.992188 22.65625 Z M 102.171875 26.242188 L 102.171875 25.992188 C 102.53125 25.953125 102.800781 25.816406 102.980469 25.582031 C 103.160156 25.351562 103.46875 24.71875 103.90625 23.691406 L 106.820312 16.832031 L 107.09375 16.832031 L 110.574219 24.753906 C 110.804688 25.285156 110.992188 25.613281 111.128906 25.738281 C 111.269531 25.863281 111.503906 25.949219 111.832031 25.992188 L 111.832031 26.242188 L 108.273438 26.242188 L 108.273438 25.992188 C 108.683594 25.957031 108.949219 25.914062 109.066406 25.859375 C 109.183594 25.808594 109.246094 25.679688 109.246094 25.472656 C 109.246094 25.40625 109.222656 25.285156 109.175781 25.113281 C 109.128906 24.9375 109.066406 24.753906 108.984375 24.566406 L 108.402344 23.222656 L 104.746094 23.222656 C 104.382812 24.132812 104.164062 24.691406 104.09375 24.894531 C 104.023438 25.097656 103.988281 25.257812 103.988281 25.378906 C 103.988281 25.613281 104.082031 25.777344 104.277344 25.871094 C 104.394531 25.925781 104.617188 25.964844 104.945312 25.992188 L 104.945312 26.242188 Z M 112.113281 17.5625 L 112.113281 17.328125 C 112.628906 17.210938 113.097656 17.078125 113.511719 16.933594 C 113.925781 16.789062 114.148438 16.714844 114.179688 16.714844 C 114.191406 16.742188 114.195312 16.769531 114.195312 16.796875 L 114.195312 20.957031 C 114.3125 20.738281 114.492188 20.53125 114.726562 20.332031 C 115.144531 19.992188 115.628906 19.820312 116.175781 19.820312 C 116.84375 19.820312 117.414062 20.105469 117.886719 20.667969 C 118.359375 21.230469 118.597656 21.964844 118.597656 22.867188 C 118.597656 23.828125 118.289062 24.65625 117.671875 25.34375 C 117.0625 26.03125 116.253906 26.371094 115.25 26.371094 C 114.75 26.371094 114.253906 26.273438 113.765625 26.070312 C 113.277344 25.875 113.03125 25.675781 113.03125 25.472656 L 113.03125 18.257812 C 113.03125 17.996094 112.996094 17.808594 112.921875 17.695312 C 112.851562 17.585938 112.683594 17.527344 112.421875 17.527344 Z M 114.167969 25.246094 C 114.210938 25.484375 114.386719 25.65625 114.703125 25.757812 C 115.015625 25.859375 115.289062 25.910156 115.523438 25.910156 C 116.160156 25.910156 116.636719 25.671875 116.941406 25.191406 C 117.25 24.714844 117.402344 24.136719 117.402344 23.460938 C 117.402344 22.78125 117.261719 22.152344 116.972656 21.578125 C 116.6875 21.003906 116.222656 20.714844 115.578125 20.714844 C 115.253906 20.714844 114.941406 20.816406 114.632812 21.015625 C 114.324219 21.210938 114.167969 21.460938 114.167969 21.765625 Z M 120.199219 17.433594 C 120.199219 17.238281 120.269531 17.066406 120.402344 16.925781 C 120.539062 16.785156 120.710938 16.714844 120.910156 16.714844 C 121.105469 16.714844 121.273438 16.785156 121.414062 16.921875 C 121.550781 17.0625 121.621094 17.230469 121.621094 17.433594 C 121.621094 17.628906 121.550781 17.796875 121.414062 17.933594 C 121.273438 18.074219 121.105469 18.144531 120.910156 18.144531 C 120.710938 18.144531 120.542969 18.074219 120.402344 17.933594 C 120.265625 17.796875 120.199219 17.628906 120.199219 17.433594 Z M 119.328125 26.050781 C 119.816406 26.007812 120.121094 25.925781 120.246094 25.804688 C 120.375 25.683594 120.4375 25.355469 120.4375 24.824219 L 120.4375 21.566406 C 120.4375 21.269531 120.417969 21.070312 120.378906 20.957031 C 120.308594 20.769531 120.164062 20.675781 119.949219 20.675781 C 119.898438 20.675781 119.851562 20.679688 119.804688 20.691406 C 119.757812 20.699219 119.617188 20.734375 119.390625 20.800781 L 119.390625 20.585938 L 119.683594 20.492188 C 120.476562 20.230469 121.035156 20.035156 121.347656 19.902344 C 121.476562 19.847656 121.558594 19.820312 121.59375 19.820312 C 121.601562 19.851562 121.605469 19.886719 121.605469 19.925781 L 121.605469 24.824219 C 121.605469 25.34375 121.671875 25.667969 121.796875 25.800781 C 121.921875 25.933594 122.203125 26.019531 122.640625 26.050781 L 122.640625 26.242188 L 119.328125 26.242188 Z M 123.222656 26.050781 C 123.644531 26.011719 123.933594 25.929688 124.082031 25.796875 C 124.230469 25.667969 124.308594 25.414062 124.308594 25.035156 L 124.308594 18.367188 C 124.308594 18.066406 124.28125 17.859375 124.230469 17.746094 C 124.140625 17.554688 123.957031 17.460938 123.679688 17.460938 C 123.613281 17.460938 123.546875 17.46875 123.46875 17.480469 C 123.394531 17.492188 123.300781 17.515625 123.1875 17.542969 L 123.1875 17.316406 C 123.800781 17.152344 124.542969 16.933594 125.40625 16.660156 C 125.4375 16.660156 125.457031 16.671875 125.460938 16.703125 C 125.46875 16.730469 125.472656 16.789062 125.472656 16.878906 L 125.472656 25.0625 C 125.472656 25.460938 125.539062 25.714844 125.679688 25.832031 C 125.816406 25.949219 126.097656 26.023438 126.523438 26.050781 L 126.523438 26.242188 L 123.222656 26.242188 Z M 127.964844 17.433594 C 127.964844 17.238281 128.035156 17.066406 128.167969 16.925781 C 128.304688 16.785156 128.476562 16.714844 128.675781 16.714844 C 128.871094 16.714844 129.039062 16.785156 129.179688 16.921875 C 129.316406 17.0625 129.386719 17.230469 129.386719 17.433594 C 129.386719 17.628906 129.316406 17.796875 129.179688 17.933594 C 129.039062 18.074219 128.871094 18.144531 128.675781 18.144531 C 128.476562 18.144531 128.308594 18.074219 128.167969 17.933594 C 128.03125 17.796875 127.964844 17.628906 127.964844 17.433594 Z M 127.09375 26.050781 C 127.578125 26.007812 127.886719 25.925781 128.011719 25.804688 C 128.140625 25.683594 128.203125 25.355469 128.203125 24.824219 L 128.203125 21.566406 C 128.203125 21.269531 128.183594 21.070312 128.144531 20.957031 C 128.074219 20.769531 127.929688 20.675781 127.710938 20.675781 C 127.660156 20.675781 127.613281 20.679688 127.566406 20.691406 C 127.519531 20.699219 127.382812 20.734375 127.15625 20.800781 L 127.15625 20.585938 L 127.445312 20.492188 C 128.242188 20.230469 128.800781 20.035156 129.113281 19.902344 C 129.242188 19.847656 129.324219 19.820312 129.359375 19.820312 C 129.367188 19.851562 129.371094 19.886719 129.371094 19.925781 L 129.371094 24.824219 C 129.371094 25.34375 129.4375 25.667969 129.5625 25.800781 C 129.6875 25.933594 129.964844 26.019531 130.40625 26.050781 L 130.40625 26.242188 L 127.09375 26.242188 Z M 134.261719 19.949219 L 134.261719 20.441406 L 132.867188 20.441406 L 132.851562 24.371094 C 132.851562 24.71875 132.882812 24.980469 132.941406 25.160156 C 133.050781 25.472656 133.265625 25.628906 133.582031 25.628906 C 133.746094 25.628906 133.890625 25.59375 134.011719 25.515625 C 134.132812 25.4375 134.269531 25.3125 134.425781 25.144531 L 134.601562 25.296875 L 134.453125 25.5 C 134.214844 25.820312 133.964844 26.046875 133.699219 26.171875 C 133.433594 26.304688 133.179688 26.371094 132.933594 26.371094 C 132.394531 26.371094 132.035156 26.132812 131.84375 25.660156 C 131.738281 25.398438 131.6875 25.039062 131.6875 24.578125 L 131.6875 20.441406 L 130.941406 20.441406 C 130.917969 20.429688 130.902344 20.417969 130.890625 20.402344 C 130.878906 20.386719 130.875 20.371094 130.875 20.347656 C 130.875 20.300781 130.882812 20.265625 130.90625 20.242188 C 130.925781 20.214844 130.992188 20.160156 131.101562 20.066406 C 131.414062 19.808594 131.640625 19.597656 131.78125 19.433594 C 131.917969 19.273438 132.246094 18.847656 132.757812 18.15625 C 132.816406 18.15625 132.851562 18.160156 132.863281 18.171875 C 132.875 18.179688 132.878906 18.214844 132.878906 18.273438 L 132.878906 19.949219 Z M 134.777344 19.972656 L 137.65625 19.972656 L 137.65625 20.183594 C 137.425781 20.1875 137.261719 20.207031 137.152344 20.246094 C 136.941406 20.304688 136.839844 20.421875 136.839844 20.59375 C 136.839844 20.65625 136.847656 20.722656 136.871094 20.789062 C 136.894531 20.855469 136.9375 20.953125 136.996094 21.085938 L 138.589844 24.625 L 139.871094 21.058594 C 139.886719 21.023438 139.90625 20.941406 139.9375 20.8125 C 139.964844 20.683594 139.980469 20.597656 139.980469 20.550781 C 139.980469 20.433594 139.941406 20.347656 139.859375 20.292969 C 139.777344 20.238281 139.675781 20.207031 139.546875 20.199219 L 139.335938 20.183594 L 139.335938 19.972656 L 141.210938 19.972656 L 141.210938 20.183594 C 141.023438 20.207031 140.886719 20.269531 140.792969 20.375 C 140.699219 20.480469 140.617188 20.625 140.550781 20.8125 L 138.398438 26.5 C 138.023438 27.484375 137.667969 28.199219 137.328125 28.636719 C 136.988281 29.078125 136.554688 29.300781 136.03125 29.300781 C 135.777344 29.300781 135.535156 29.238281 135.3125 29.109375 C 135.089844 28.980469 134.980469 28.777344 134.980469 28.503906 C 134.980469 28.320312 135.046875 28.171875 135.179688 28.058594 C 135.316406 27.941406 135.484375 27.882812 135.691406 27.882812 C 135.808594 27.882812 135.984375 27.925781 136.21875 28.011719 C 136.453125 28.097656 136.621094 28.140625 136.722656 28.140625 C 136.976562 28.140625 137.246094 27.847656 137.523438 27.253906 C 137.804688 26.660156 137.949219 26.265625 137.949219 26.0625 C 137.949219 26.027344 137.941406 25.976562 137.929688 25.917969 C 137.914062 25.859375 137.898438 25.804688 137.878906 25.761719 L 135.695312 21.039062 C 135.542969 20.699219 135.40625 20.480469 135.289062 20.371094 C 135.171875 20.265625 135 20.195312 134.777344 20.164062 Z M 148.542969 19.179688 L 149.5 19.179688 L 149.5 22.238281 L 152.539062 22.238281 L 152.539062 23.195312 L 149.5 23.195312 L 149.5 26.242188 L 148.542969 26.242188 L 148.542969 23.195312 L 145.484375 23.195312 L 145.484375 22.238281 L 148.542969 22.238281 Z M 156.804688 23.078125 C 156.804688 22.171875 157.09375 21.40625 157.664062 20.78125 C 158.242188 20.15625 158.984375 19.839844 159.886719 19.839844 C 160.789062 19.839844 161.535156 20.136719 162.125 20.730469 C 162.71875 21.320312 163.015625 22.109375 163.015625 23.09375 C 163.015625 23.996094 162.726562 24.785156 162.152344 25.453125 C 161.582031 26.117188 160.839844 26.453125 159.925781 26.453125 C 159.054688 26.453125 158.316406 26.132812 157.710938 25.496094 C 157.105469 24.851562 156.804688 24.042969 156.804688 23.078125 Z M 159.695312 20.253906 C 159.339844 20.253906 159.027344 20.371094 158.761719 20.605469 C 158.304688 21.019531 158.078125 21.734375 158.078125 22.75 C 158.078125 23.5625 158.261719 24.3125 158.628906 25.015625 C 158.996094 25.71875 159.503906 26.0625 160.152344 26.0625 C 160.664062 26.0625 161.058594 25.832031 161.332031 25.363281 C 161.609375 24.894531 161.746094 24.28125 161.746094 23.523438 C 161.746094 22.734375 161.570312 21.992188 161.21875 21.292969 C 160.867188 20.601562 160.359375 20.253906 159.695312 20.253906 Z M 166.992188 19.949219 L 166.992188 20.441406 L 165.601562 20.441406 L 165.585938 24.371094 C 165.585938 24.71875 165.617188 24.980469 165.675781 25.160156 C 165.785156 25.472656 166 25.628906 166.316406 25.628906 C 166.480469 25.628906 166.625 25.59375 166.746094 25.515625 C 166.867188 25.4375 167 25.3125 167.15625 25.144531 L 167.332031 25.296875 L 167.183594 25.5 C 166.949219 25.820312 166.699219 26.046875 166.433594 26.171875 C 166.167969 26.304688 165.914062 26.371094 165.667969 26.371094 C 165.128906 26.371094 164.765625 26.132812 164.574219 25.660156 C 164.472656 25.398438 164.421875 25.039062 164.421875 24.578125 L 164.421875 20.441406 L 163.675781 20.441406 C 163.652344 20.429688 163.636719 20.417969 163.625 20.402344 C 163.613281 20.386719 163.609375 20.371094 163.609375 20.347656 C 163.609375 20.300781 163.617188 20.265625 163.640625 20.242188 C 163.660156 20.214844 163.726562 20.160156 163.835938 20.066406 C 164.148438 19.808594 164.375 19.597656 164.515625 19.433594 C 164.648438 19.273438 164.976562 18.847656 165.492188 18.15625 C 165.550781 18.15625 165.585938 18.160156 165.597656 18.171875 C 165.609375 18.179688 165.613281 18.214844 165.613281 18.273438 L 165.613281 19.949219 Z M 167.445312 26.050781 C 167.816406 26.003906 168.0625 25.914062 168.179688 25.777344 C 168.296875 25.644531 168.351562 25.324219 168.351562 24.824219 L 168.351562 18.273438 C 168.351562 18.019531 168.320312 17.832031 168.253906 17.710938 C 168.1875 17.589844 168.027344 17.527344 167.773438 17.527344 C 167.722656 17.527344 167.671875 17.53125 167.625 17.539062 C 167.578125 17.546875 167.523438 17.554688 167.464844 17.5625 L 167.464844 17.316406 C 167.664062 17.257812 167.910156 17.183594 168.207031 17.101562 C 168.5 17.015625 168.703125 16.957031 168.816406 16.921875 L 169.46875 16.714844 L 169.484375 16.761719 L 169.484375 20.957031 C 169.769531 20.628906 170.027344 20.386719 170.25 20.230469 C 170.652344 19.957031 171.082031 19.820312 171.546875 19.820312 C 172.28125 19.820312 172.785156 20.132812 173.054688 20.75 C 173.199219 21.078125 173.273438 21.507812 173.273438 22.039062 L 173.273438 24.824219 C 173.273438 25.308594 173.328125 25.621094 173.441406 25.769531 C 173.554688 25.914062 173.78125 26.007812 174.128906 26.050781 L 174.128906 26.242188 L 171.171875 26.242188 L 171.171875 26.050781 C 171.566406 26 171.824219 25.90625 171.9375 25.773438 C 172.046875 25.640625 172.105469 25.324219 172.105469 24.824219 L 172.105469 22.058594 C 172.105469 21.617188 172.03125 21.257812 171.886719 20.988281 C 171.738281 20.714844 171.457031 20.582031 171.050781 20.582031 C 170.695312 20.582031 170.347656 20.707031 170.015625 20.964844 C 169.683594 21.214844 169.519531 21.378906 169.519531 21.457031 L 169.519531 24.824219 C 169.519531 25.335938 169.578125 25.652344 169.695312 25.78125 C 169.8125 25.910156 170.066406 26 170.453125 26.050781 L 170.453125 26.242188 L 167.445312 26.242188 Z M 177.511719 19.839844 C 178.152344 19.839844 178.714844 20.0625 179.199219 20.507812 C 179.679688 20.953125 179.917969 21.578125 179.917969 22.394531 L 175.585938 22.394531 C 175.632812 23.453125 175.871094 24.21875 176.304688 24.699219 C 176.738281 25.183594 177.246094 25.425781 177.839844 25.425781 C 178.316406 25.425781 178.71875 25.300781 179.046875 25.050781 C 179.371094 24.800781 179.675781 24.445312 179.953125 23.984375 L 180.191406 24.066406 C 180.003906 24.644531 179.65625 25.179688 179.148438 25.671875 C 178.636719 26.160156 178.007812 26.40625 177.265625 26.40625 C 176.410156 26.40625 175.75 26.082031 175.28125 25.441406 C 174.816406 24.792969 174.582031 24.046875 174.582031 23.207031 C 174.582031 22.292969 174.851562 21.5 175.394531 20.839844 C 175.9375 20.175781 176.644531 19.839844 177.511719 19.839844 Z M 177.113281 20.339844 C 176.597656 20.339844 176.203125 20.570312 175.929688 21.03125 C 175.785156 21.273438 175.679688 21.582031 175.613281 21.957031 L 178.496094 21.957031 C 178.445312 21.5 178.359375 21.160156 178.234375 20.941406 C 178.011719 20.542969 177.636719 20.339844 177.113281 20.339844 Z M 180.574219 26.019531 C 180.992188 25.984375 181.269531 25.910156 181.40625 25.796875 C 181.542969 25.6875 181.613281 25.449219 181.613281 25.082031 L 181.613281 22.003906 C 181.613281 21.554688 181.570312 21.230469 181.484375 21.042969 C 181.402344 20.847656 181.246094 20.75 181.023438 20.75 C 180.980469 20.75 180.917969 20.757812 180.84375 20.769531 C 180.769531 20.78125 180.691406 20.792969 180.605469 20.8125 L 180.605469 20.585938 C 180.867188 20.496094 181.132812 20.402344 181.40625 20.308594 C 181.679688 20.210938 181.867188 20.144531 181.96875 20.101562 C 182.199219 20.015625 182.433594 19.917969 182.675781 19.808594 C 182.707031 19.808594 182.726562 19.820312 182.734375 19.839844 C 182.742188 19.863281 182.742188 19.914062 182.742188 19.984375 L 182.742188 21.101562 C 183.035156 20.699219 183.316406 20.382812 183.585938 20.15625 C 183.859375 19.929688 184.140625 19.816406 184.425781 19.816406 C 184.660156 19.816406 184.847656 19.882812 184.996094 20.023438 C 185.140625 20.160156 185.214844 20.335938 185.214844 20.546875 C 185.214844 20.734375 185.15625 20.890625 185.046875 21.019531 C 184.933594 21.140625 184.792969 21.203125 184.625 21.203125 C 184.453125 21.203125 184.28125 21.125 184.105469 20.96875 C 183.929688 20.808594 183.792969 20.730469 183.695312 20.730469 C 183.535156 20.730469 183.335938 20.859375 183.105469 21.113281 C 182.875 21.371094 182.757812 21.636719 182.757812 21.910156 L 182.757812 24.988281 C 182.757812 25.378906 182.847656 25.652344 183.03125 25.804688 C 183.210938 25.957031 183.515625 26.03125 183.9375 26.019531 L 183.9375 26.242188 L 180.574219 26.242188 Z M 185.894531 24.09375 L 186.117188 24.09375 C 186.222656 24.613281 186.363281 25.011719 186.542969 25.289062 C 186.859375 25.800781 187.324219 26.050781 187.9375 26.050781 C 188.28125 26.050781 188.550781 25.960938 188.75 25.769531 C 188.949219 25.582031 189.046875 25.335938 189.046875 25.035156 C 189.046875 24.84375 188.988281 24.660156 188.875 24.480469 C 188.761719 24.304688 188.5625 24.132812 188.273438 23.964844 L 187.507812 23.53125 C 186.949219 23.230469 186.539062 22.925781 186.277344 22.621094 C 186.011719 22.316406 185.878906 21.953125 185.878906 21.539062 C 185.878906 21.035156 186.0625 20.613281 186.425781 20.285156 C 186.785156 19.957031 187.246094 19.792969 187.796875 19.792969 C 188.039062 19.792969 188.304688 19.839844 188.59375 19.929688 C 188.882812 20.019531 189.042969 20.066406 189.082031 20.066406 C 189.164062 20.066406 189.222656 20.054688 189.253906 20.035156 C 189.292969 20.011719 189.324219 19.972656 189.351562 19.925781 L 189.515625 19.925781 L 189.5625 21.828125 L 189.351562 21.828125 C 189.261719 21.386719 189.140625 21.042969 188.984375 20.800781 C 188.703125 20.34375 188.296875 20.113281 187.761719 20.113281 C 187.441406 20.113281 187.191406 20.214844 187.007812 20.410156 C 186.828125 20.605469 186.738281 20.835938 186.738281 21.097656 C 186.738281 21.515625 187.050781 21.890625 187.679688 22.21875 L 188.582031 22.703125 C 189.550781 23.230469 190.035156 23.84375 190.035156 24.542969 C 190.035156 25.082031 189.832031 25.519531 189.429688 25.863281 C 189.03125 26.203125 188.503906 26.371094 187.851562 26.371094 C 187.578125 26.371094 187.265625 26.328125 186.921875 26.234375 C 186.578125 26.144531 186.375 26.097656 186.308594 26.097656 C 186.253906 26.097656 186.207031 26.117188 186.167969 26.15625 C 186.125 26.195312 186.09375 26.242188 186.070312 26.296875 L 185.894531 26.296875 Z M 194.582031 22.804688 C 194.582031 23.484375 194.496094 24.121094 194.316406 24.730469 C 194.140625 25.335938 193.882812 25.90625 193.539062 26.441406 C 193.179688 27.015625 192.699219 27.550781 192.097656 28.046875 C 191.707031 28.375 191.375 28.601562 191.105469 28.734375 L 190.972656 28.511719 C 191.675781 27.976562 192.183594 27.433594 192.507812 26.878906 C 193.082031 25.898438 193.371094 24.597656 193.371094 22.984375 C 193.371094 21.675781 193.238281 20.609375 192.972656 19.78125 C 192.605469 18.613281 191.9375 17.691406 190.972656 17.023438 L 191.152344 16.796875 C 191.867188 17.199219 192.539062 17.804688 193.15625 18.617188 C 194.109375 19.859375 194.582031 21.253906 194.582031 22.804688 Z M 64.328125 15.761719 "/>
<path style="fill:none;stroke-width:1;stroke-linecap:butt;stroke-linejoin:miter;stroke:rgb(0%,0%,0%);stroke-opacity:1;stroke-miterlimit:4;" d="M 126.001822 -64.893785 C 126.001822 -59.119057 126.001822 -52.581406 126.001822 -46.262851 " transform="matrix(0.998424,0,0,0.998424,3.993694,104.920387)"/>
<path style="fill-rule:nonzero;fill:rgb(0%,0%,0%);fill-opacity:1;stroke-width:1;stroke-linecap:butt;stroke-linejoin:miter;stroke:rgb(0%,0%,0%);stroke-opacity:1;stroke-miterlimit:4;" d="M 129.499524 -46.008544 L 126.001822 -36.008404 L 122.500208 -46.008544 Z M 129.499524 -46.008544 " transform="matrix(0.998424,0,0,0.998424,3.993694,104.920387)"/>
<path style="fill:none;stroke-width:1;stroke-linecap:butt;stroke-linejoin:miter;stroke:rgb(0%,0%,0%);stroke-opacity:1;stroke-miterlimit:4;" d="M 154.136019 -64.893785 C 165.407695 -57.640163 178.541682 -49.185428 190.533243 -41.470139 " transform="matrix(0.998424,0,0,0.998424,3.993694,104.920387)"/>
<path style="fill-rule:nonzero;fill:rgb(0%,0%,0%);fill-opacity:1;stroke-width:1;stroke-linecap:butt;stroke-linejoin:miter;stroke:rgb(0%,0%,0%);stroke-opacity:1;stroke-miterlimit:4;" d="M 192.501189 -44.365329 L 199.015365 -36.008404 L 188.713969 -38.47714 Z M 192.501189 -44.365329 " transform="matrix(0.998424,0,0,0.998424,3.993694,104.920387)"/>
<path style=" stroke:none;fill-rule:nonzero;fill:rgb(0%,0%,0%);fill-opacity:1;" d="M 229.3125 25.992188 C 229.828125 25.9375 230.164062 25.847656 230.316406 25.714844 C 230.46875 25.585938 230.542969 25.257812 230.542969 24.730469 L 230.542969 18.511719 C 230.542969 18.015625 230.46875 17.691406 230.320312 17.539062 C 230.167969 17.386719 229.832031 17.292969 229.3125 17.253906 L 229.3125 16.996094 L 236.738281 16.996094 L 236.785156 19 L 236.433594 19 C 236.3125 18.382812 236.140625 17.984375 235.902344 17.800781 C 235.664062 17.617188 235.136719 17.527344 234.316406 17.527344 L 232.417969 17.527344 C 232.214844 17.527344 232.089844 17.5625 232.039062 17.628906 C 231.992188 17.695312 231.96875 17.816406 231.96875 18 L 231.96875 21.117188 L 234.117188 21.117188 C 234.714844 21.117188 235.09375 21.03125 235.257812 20.855469 C 235.421875 20.675781 235.554688 20.316406 235.65625 19.773438 L 235.984375 19.773438 L 235.984375 23.007812 L 235.65625 23.007812 C 235.550781 22.46875 235.417969 22.109375 235.253906 21.933594 C 235.089844 21.757812 234.710938 21.671875 234.117188 21.671875 L 231.96875 21.671875 L 231.96875 25.132812 C 231.96875 25.410156 232.054688 25.574219 232.230469 25.625 C 232.40625 25.675781 232.933594 25.699219 233.804688 25.699219 C 234.75 25.699219 235.453125 25.59375 235.902344 25.386719 C 236.347656 25.179688 236.753906 24.679688 237.113281 23.878906 L 237.503906 23.878906 L 236.871094 26.242188 L 229.3125 26.242188 Z M 240.933594 19.972656 L 240.933594 20.164062 C 240.757812 20.167969 240.613281 20.191406 240.492188 20.234375 C 240.371094 20.277344 240.308594 20.367188 240.308594 20.503906 C 240.308594 20.589844 240.429688 20.835938 240.671875 21.234375 C 240.800781 21.441406 240.960938 21.699219 241.15625 22.003906 C 241.421875 21.636719 241.621094 21.347656 241.753906 21.136719 C 241.976562 20.804688 242.089844 20.585938 242.089844 20.484375 C 242.089844 20.367188 242.042969 20.285156 241.945312 20.246094 C 241.851562 20.203125 241.714844 20.175781 241.542969 20.164062 L 241.542969 19.972656 L 243.738281 19.972656 L 243.738281 20.164062 C 243.511719 20.183594 243.296875 20.242188 243.09375 20.351562 C 242.894531 20.457031 242.734375 20.601562 242.609375 20.777344 L 241.441406 22.460938 L 243.246094 25.191406 C 243.476562 25.546875 243.675781 25.777344 243.832031 25.882812 C 243.996094 25.988281 244.179688 26.046875 244.390625 26.050781 L 244.390625 26.242188 L 241.570312 26.242188 L 241.570312 26.050781 L 241.769531 26.042969 C 241.875 26.03125 241.960938 26 242.03125 25.945312 C 242.101562 25.890625 242.136719 25.824219 242.136719 25.738281 C 242.136719 25.652344 242.050781 25.460938 241.878906 25.167969 C 241.796875 25.019531 241.671875 24.820312 241.507812 24.570312 C 241.429688 24.449219 241.316406 24.277344 241.167969 24.058594 C 241.015625 23.839844 240.886719 23.652344 240.78125 23.5 L 239.679688 25.214844 C 239.546875 25.417969 239.464844 25.554688 239.433594 25.625 C 239.402344 25.691406 239.386719 25.75 239.386719 25.792969 C 239.386719 25.878906 239.421875 25.9375 239.492188 25.964844 C 239.5625 25.992188 239.71875 26.023438 239.953125 26.050781 L 239.953125 26.242188 L 237.933594 26.242188 L 237.933594 26.050781 C 238.179688 26.003906 238.363281 25.941406 238.480469 25.863281 C 238.601562 25.785156 238.753906 25.605469 238.949219 25.324219 L 240.542969 23.007812 L 239.230469 21.023438 C 238.964844 20.628906 238.78125 20.394531 238.6875 20.320312 C 238.585938 20.246094 238.367188 20.195312 238.03125 20.164062 L 238.03125 19.972656 Z M 246.914062 24.988281 C 247.03125 25.296875 247.210938 25.53125 247.445312 25.683594 C 247.679688 25.835938 247.957031 25.910156 248.273438 25.910156 C 248.761719 25.910156 249.183594 25.667969 249.53125 25.175781 C 249.878906 24.6875 250.054688 24.003906 250.054688 23.132812 C 250.054688 22.292969 249.875 21.667969 249.511719 21.253906 C 249.148438 20.84375 248.730469 20.636719 248.253906 20.636719 C 247.917969 20.636719 247.609375 20.738281 247.332031 20.945312 C 247.054688 21.148438 246.914062 21.351562 246.914062 21.554688 Z M 244.746094 29.0625 C 245.175781 29.035156 245.445312 28.941406 245.5625 28.789062 C 245.679688 28.632812 245.738281 28.394531 245.738281 28.0625 L 245.738281 21.507812 C 245.738281 21.160156 245.695312 20.941406 245.609375 20.84375 C 245.527344 20.746094 245.367188 20.695312 245.136719 20.695312 C 245.085938 20.695312 245.039062 20.699219 244.996094 20.703125 C 244.953125 20.707031 244.886719 20.714844 244.808594 20.730469 L 244.808594 20.503906 L 245.457031 20.292969 C 245.480469 20.289062 245.9375 20.132812 246.828125 19.820312 C 246.851562 19.820312 246.867188 19.832031 246.878906 19.851562 C 246.890625 19.871094 246.894531 19.894531 246.894531 19.925781 L 246.894531 20.847656 C 247.195312 20.546875 247.460938 20.324219 247.6875 20.175781 C 248.097656 19.921875 248.519531 19.792969 248.949219 19.792969 C 249.578125 19.792969 250.117188 20.0625 250.570312 20.597656 C 251.023438 21.128906 251.25 21.859375 251.25 22.789062 C 251.25 23.699219 250.980469 24.527344 250.433594 25.269531 C 249.890625 26.011719 249.207031 26.378906 248.382812 26.378906 C 248.128906 26.378906 247.910156 26.347656 247.722656 26.28125 C 247.429688 26.1875 247.160156 26.015625 246.914062 25.761719 L 246.914062 27.992188 C 246.914062 28.453125 246.992188 28.730469 247.140625 28.835938 C 247.289062 28.941406 247.617188 29.011719 248.125 29.046875 L 248.125 29.285156 L 244.746094 29.285156 Z M 254.875 19.839844 C 255.515625 19.839844 256.074219 20.0625 256.558594 20.507812 C 257.042969 20.953125 257.28125 21.578125 257.28125 22.394531 L 252.949219 22.394531 C 252.996094 23.453125 253.234375 24.21875 253.664062 24.699219 C 254.097656 25.183594 254.609375 25.425781 255.203125 25.425781 C 255.679688 25.425781 256.078125 25.300781 256.40625 25.050781 C 256.734375 24.800781 257.039062 24.445312 257.316406 23.984375 L 257.554688 24.066406 C 257.367188 24.644531 257.019531 25.179688 256.507812 25.671875 C 256 26.160156 255.371094 26.40625 254.628906 26.40625 C 253.769531 26.40625 253.113281 26.082031 252.644531 25.441406 C 252.179688 24.792969 251.945312 24.046875 251.945312 23.207031 C 251.945312 22.292969 252.214844 21.5 252.757812 20.839844 C 253.300781 20.175781 254.003906 19.839844 254.875 19.839844 Z M 254.476562 20.339844 C 253.957031 20.339844 253.566406 20.570312 253.292969 21.03125 C 253.148438 21.273438 253.042969 21.582031 252.976562 21.957031 L 255.859375 21.957031 C 255.808594 21.5 255.722656 21.160156 255.597656 20.941406 C 255.375 20.542969 255 20.339844 254.476562 20.339844 Z M 257.941406 26.019531 C 258.359375 25.984375 258.632812 25.910156 258.769531 25.796875 C 258.90625 25.6875 258.976562 25.449219 258.976562 25.082031 L 258.976562 22.003906 C 258.976562 21.554688 258.933594 21.230469 258.847656 21.042969 C 258.765625 20.847656 258.609375 20.75 258.390625 20.75 C 258.347656 20.75 258.285156 20.757812 258.210938 20.769531 C 258.136719 20.78125 258.058594 20.792969 257.972656 20.8125 L 257.972656 20.585938 C 258.234375 20.496094 258.5 20.402344 258.769531 20.308594 C 259.042969 20.210938 259.234375 20.144531 259.335938 20.101562 C 259.566406 20.015625 259.800781 19.917969 260.042969 19.808594 C 260.074219 19.808594 260.09375 19.820312 260.101562 19.839844 C 260.109375 19.863281 260.109375 19.914062 260.109375 19.984375 L 260.109375 21.101562 C 260.402344 20.699219 260.683594 20.382812 260.953125 20.15625 C 261.222656 19.929688 261.503906 19.816406 261.792969 19.816406 C 262.027344 19.816406 262.214844 19.882812 262.363281 20.023438 C 262.507812 20.160156 262.582031 20.335938 262.582031 20.546875 C 262.582031 20.734375 262.523438 20.890625 262.414062 21.019531 C 262.300781 21.140625 262.160156 21.203125 261.992188 21.203125 C 261.820312 21.203125 261.644531 21.125 261.46875 20.96875 C 261.292969 20.808594 261.15625 20.730469 261.058594 20.730469 C 260.902344 20.730469 260.703125 20.859375 260.472656 21.113281 C 260.242188 21.371094 260.125 21.636719 260.125 21.910156 L 260.125 24.988281 C 260.125 25.378906 260.214844 25.652344 260.398438 25.804688 C 260.578125 25.957031 260.882812 26.03125 261.300781 26.019531 L 261.300781 26.242188 L 257.941406 26.242188 Z M 263.675781 17.433594 C 263.675781 17.238281 263.746094 17.066406 263.878906 16.925781 C 264.015625 16.785156 264.1875 16.714844 264.386719 16.714844 C 264.582031 16.714844 264.75 16.785156 264.890625 16.921875 C 265.027344 17.0625 265.097656 17.230469 265.097656 17.433594 C 265.097656 17.628906 265.027344 17.796875 264.890625 17.933594 C 264.75 18.074219 264.582031 18.144531 264.386719 18.144531 C 264.1875 18.144531 264.019531 18.074219 263.878906 17.933594 C 263.742188 17.796875 263.675781 17.628906 263.675781 17.433594 Z M 262.804688 26.050781 C 263.292969 26.007812 263.597656 25.925781 263.722656 25.804688 C 263.851562 25.683594 263.914062 25.355469 263.914062 24.824219 L 263.914062 21.566406 C 263.914062 21.269531 263.894531 21.070312 263.855469 20.957031 C 263.785156 20.769531 263.640625 20.675781 263.425781 20.675781 C 263.375 20.675781 263.328125 20.679688 263.28125 20.691406 C 263.234375 20.699219 263.09375 20.734375 262.867188 20.800781 L 262.867188 20.585938 L 263.160156 20.492188 C 263.953125 20.230469 264.511719 20.035156 264.824219 19.902344 C 264.953125 19.847656 265.035156 19.820312 265.070312 19.820312 C 265.078125 19.851562 265.082031 19.886719 265.082031 19.925781 L 265.082031 24.824219 C 265.082031 25.34375 265.148438 25.667969 265.273438 25.800781 C 265.398438 25.933594 265.679688 26.019531 266.117188 26.050781 L 266.117188 26.242188 L 262.804688 26.242188 Z M 269.617188 19.839844 C 270.257812 19.839844 270.820312 20.0625 271.300781 20.507812 C 271.785156 20.953125 272.023438 21.578125 272.023438 22.394531 L 267.691406 22.394531 C 267.738281 23.453125 267.976562 24.21875 268.410156 24.699219 C 268.839844 25.183594 269.351562 25.425781 269.945312 25.425781 C 270.421875 25.425781 270.824219 25.300781 271.148438 25.050781 C 271.476562 24.800781 271.78125 24.445312 272.058594 23.984375 L 272.296875 24.066406 C 272.109375 24.644531 271.761719 25.179688 271.25 25.671875 C 270.742188 26.160156 270.113281 26.40625 269.371094 26.40625 C 268.511719 26.40625 267.855469 26.082031 267.386719 25.441406 C 266.921875 24.792969 266.6875 24.046875 266.6875 23.207031 C 266.6875 22.292969 266.957031 21.5 267.5 20.839844 C 268.042969 20.175781 268.746094 19.839844 269.617188 19.839844 Z M 269.21875 20.339844 C 268.699219 20.339844 268.308594 20.570312 268.035156 21.03125 C 267.890625 21.273438 267.785156 21.582031 267.71875 21.957031 L 270.601562 21.957031 C 270.550781 21.5 270.464844 21.160156 270.339844 20.941406 C 270.117188 20.542969 269.742188 20.339844 269.21875 20.339844 Z M 272.875 26.050781 C 273.199219 26.011719 273.421875 25.933594 273.550781 25.8125 C 273.679688 25.691406 273.746094 25.421875 273.746094 25.003906 L 273.746094 21.539062 C 273.746094 21.25 273.71875 21.046875 273.664062 20.929688 C 273.578125 20.753906 273.398438 20.667969 273.132812 20.667969 C 273.09375 20.667969 273.050781 20.671875 273.007812 20.675781 C 272.964844 20.679688 272.910156 20.6875 272.847656 20.695312 L 272.847656 20.457031 C 273.035156 20.402344 273.472656 20.261719 274.167969 20.035156 L 274.8125 19.820312 C 274.84375 19.820312 274.863281 19.832031 274.871094 19.855469 C 274.875 19.878906 274.878906 19.910156 274.878906 19.949219 L 274.878906 20.957031 C 275.296875 20.566406 275.628906 20.296875 275.859375 20.148438 C 276.214844 19.925781 276.585938 19.816406 276.96875 19.816406 C 277.277344 19.816406 277.558594 19.902344 277.816406 20.082031 C 278.308594 20.425781 278.550781 21.042969 278.550781 21.929688 L 278.550781 25.117188 C 278.550781 25.445312 278.617188 25.683594 278.75 25.828125 C 278.882812 25.972656 279.101562 26.050781 279.410156 26.050781 L 279.410156 26.242188 L 276.496094 26.242188 L 276.496094 26.050781 C 276.828125 26.007812 277.0625 25.917969 277.191406 25.777344 C 277.324219 25.636719 277.390625 25.335938 277.390625 24.871094 L 277.390625 21.957031 C 277.390625 21.566406 277.320312 21.242188 277.171875 20.988281 C 277.027344 20.730469 276.757812 20.601562 276.367188 20.601562 C 276.097656 20.601562 275.828125 20.691406 275.550781 20.875 C 275.394531 20.980469 275.195312 21.148438 274.949219 21.390625 L 274.949219 25.214844 C 274.949219 25.542969 275.019531 25.761719 275.167969 25.875 C 275.3125 25.984375 275.542969 26.046875 275.855469 26.050781 L 275.855469 26.242188 L 272.875 26.242188 Z M 283.085938 19.808594 C 283.652344 19.808594 284.140625 19.953125 284.554688 20.25 C 284.96875 20.542969 285.171875 20.863281 285.171875 21.210938 C 285.171875 21.363281 285.121094 21.503906 285.015625 21.632812 C 284.910156 21.761719 284.75 21.828125 284.53125 21.828125 C 284.371094 21.828125 284.230469 21.773438 284.109375 21.664062 C 283.988281 21.554688 283.902344 21.394531 283.847656 21.183594 L 283.765625 20.859375 C 283.707031 20.617188 283.601562 20.449219 283.457031 20.347656 C 283.304688 20.253906 283.113281 20.203125 282.867188 20.203125 C 282.347656 20.203125 281.90625 20.429688 281.550781 20.882812 C 281.191406 21.332031 281.011719 21.9375 281.011719 22.6875 C 281.011719 23.375 281.210938 23.988281 281.605469 24.535156 C 282 25.082031 282.53125 25.355469 283.199219 25.355469 C 283.671875 25.355469 284.09375 25.203125 284.460938 24.894531 C 284.671875 24.714844 284.910156 24.433594 285.171875 24.042969 L 285.363281 24.160156 C 285.105469 24.707031 284.832031 25.140625 284.542969 25.460938 C 283.992188 26.066406 283.355469 26.371094 282.632812 26.371094 C 281.921875 26.371094 281.292969 26.09375 280.75 25.535156 C 280.203125 24.972656 279.929688 24.214844 279.929688 23.257812 C 279.929688 22.3125 280.230469 21.5 280.824219 20.824219 C 281.417969 20.144531 282.171875 19.808594 283.085938 19.808594 Z M 289.015625 19.839844 C 289.65625 19.839844 290.21875 20.0625 290.699219 20.507812 C 291.183594 20.953125 291.421875 21.578125 291.421875 22.394531 L 287.089844 22.394531 C 287.136719 23.453125 287.375 24.21875 287.808594 24.699219 C 288.238281 25.183594 288.75 25.425781 289.34375 25.425781 C 289.820312 25.425781 290.222656 25.300781 290.550781 25.050781 C 290.875 24.800781 291.179688 24.445312 291.457031 23.984375 L 291.695312 24.066406 C 291.507812 24.644531 291.160156 25.179688 290.652344 25.671875 C 290.140625 26.160156 289.511719 26.40625 288.769531 26.40625 C 287.914062 26.40625 287.253906 26.082031 286.785156 25.441406 C 286.320312 24.792969 286.085938 24.046875 286.085938 23.207031 C 286.085938 22.292969 286.355469 21.5 286.898438 20.839844 C 287.441406 20.175781 288.148438 19.839844 289.015625 19.839844 Z M 288.617188 20.339844 C 288.101562 20.339844 287.707031 20.570312 287.433594 21.03125 C 287.289062 21.273438 287.183594 21.582031 287.117188 21.957031 L 290 21.957031 C 289.949219 21.5 289.863281 21.160156 289.738281 20.941406 C 289.515625 20.542969 289.140625 20.339844 288.617188 20.339844 Z M 229.15625 15.761719 "/>
<path style="fill:none;stroke-width:1;stroke-linecap:butt;stroke-linejoin:miter;stroke:rgb(0%,0%,0%);stroke-opacity:1;stroke-miterlimit:4;" d="M 248.644386 -64.893785 C 245.847007 -58.837363 242.666212 -51.943682 239.618438 -45.343433 " transform="matrix(0.998424,0,0,0.998424,3.993694,104.920387)"/>
<path style="fill-rule:nonzero;fill:rgb(0%,0%,0%);fill-opacity:1;stroke-width:1;stroke-linecap:butt;stroke-linejoin:miter;stroke:rgb(0%,0%,0%);stroke-opacity:1;stroke-miterlimit:4;" d="M 242.681861 -43.621969 L 235.310866 -36.008404 L 236.324182 -46.556283 Z M 242.681861 -43.621969 " transform="matrix(0.998424,0,0,0.998424,3.993694,104.920387)"/>
</g>
</svg>
